<svg width="86" height="91" viewBox="0 0 86 91" fill="none" xmlns="http://www.w3.org/2000/svg">
<path d="M50.4216 20.4825H22.8227C21.7517 20.4825 20.761 21.0512 20.2216 21.9765L6.44904 45.5867C5.90208 46.5244 5.90208 47.6838 6.44904 48.6215L20.2216 72.2317C20.7614 73.157 21.7517 73.7257 22.8227 73.7257H50.4219C51.4929 73.7257 52.4837 73.157 53.0231 72.2317L66.7956 48.6215C67.3425 47.6838 67.3425 46.5244 66.7956 45.5867L53.0231 21.9765C52.4833 21.0512 51.4929 20.4825 50.4216 20.4825V20.4825Z" fill="#42A4FA"/>
<path d="M17.8038 49.022V47.262C19.0091 46.5046 19.9798 45.8166 20.7158 45.198C21.4624 44.5686 22.0064 43.982 22.3478 43.438C22.6891 42.894 22.8598 42.3766 22.8598 41.886C22.8598 41.4806 22.7371 41.1446 22.4918 40.878C22.2571 40.6006 21.9051 40.462 21.4358 40.462C20.9344 40.462 20.5398 40.6486 20.2518 41.022C19.9744 41.3846 19.8304 41.918 19.8198 42.622L17.4678 41.902C17.4891 41.1233 17.6758 40.4673 18.0278 39.934C18.3904 39.39 18.8811 38.9846 19.4998 38.718C20.1184 38.4406 20.8224 38.302 21.6118 38.302C22.5398 38.302 23.2971 38.4726 23.8838 38.814C24.4704 39.1446 24.9024 39.5713 25.1798 40.094C25.4571 40.606 25.5958 41.1393 25.5958 41.694C25.5958 42.718 25.2064 43.6513 24.4278 44.494C23.6491 45.326 22.5451 46.1526 21.1158 46.974V46.99C21.3824 46.9686 21.7184 46.9526 22.1238 46.942C22.5398 46.9313 22.9131 46.926 23.2438 46.926H25.7238V49.022H17.8038ZM30.951 49.182C30.0337 49.182 29.2337 49.006 28.551 48.654C27.879 48.2913 27.3137 47.7046 26.855 46.894L29.271 45.694C29.3883 46.1206 29.575 46.462 29.831 46.718C30.0977 46.974 30.4923 47.102 31.015 47.102C31.5057 47.102 31.895 46.974 32.183 46.718C32.471 46.4513 32.615 46.0673 32.615 45.566C32.615 44.5953 32.0817 44.11 31.015 44.11C30.279 44.11 29.7137 44.318 29.319 44.734L27.239 44.35L27.911 38.462H34.567V40.59H29.911L29.639 42.702L29.591 42.958H29.607C29.8203 42.7126 30.119 42.526 30.503 42.398C30.887 42.27 31.3137 42.206 31.783 42.206C32.4763 42.206 33.0683 42.3446 33.559 42.622C34.0603 42.8993 34.439 43.278 34.695 43.758C34.9617 44.238 35.095 44.7873 35.095 45.406C35.095 46.27 34.903 46.9846 34.519 47.55C34.135 48.1046 33.6283 48.5153 32.999 48.782C32.3697 49.0486 31.687 49.182 30.951 49.182Z" fill="#FFEA92"/>
<path d="M49.8329 70.4421H25.1412C23.8075 70.4421 22.5615 69.7265 21.8896 68.5746L9.58588 47.4832C9.37621 47.124 9.4978 46.6629 9.85691 46.4536C10.2168 46.2439 10.6772 46.3655 10.8865 46.7246L23.1901 67.8161C23.5933 68.5073 24.3409 68.9368 25.1412 68.9368H49.8332C50.2488 68.9368 50.5861 69.2737 50.5861 69.6896C50.5861 70.1056 50.2488 70.4421 49.8329 70.4421V70.4421Z" fill="#E0EBFC"/>
<path d="M45.5134 38.4211C45.5134 39.8322 45.2031 40.8812 44.5825 41.568C43.9619 42.2551 43.1124 42.5985 42.0338 42.5985C41.3691 42.5985 40.7722 42.4529 40.2442 42.161C39.716 41.8691 39.3041 41.4131 39.0087 40.7925C38.7134 40.1719 38.5654 39.4148 38.5654 38.521C38.5654 37.5607 38.68 36.759 38.9091 36.1165C39.1377 35.4738 39.509 34.9864 40.0226 34.6539C40.5361 34.3214 41.1918 34.1553 41.9895 34.1553C42.5658 34.1553 43.0716 34.244 43.5076 34.4213C43.9435 34.5986 44.3128 34.8701 44.6159 35.2357C44.9187 35.6013 45.1438 36.0465 45.2918 36.571C45.4394 37.0953 45.5134 37.7121 45.5134 38.4211ZM43.4411 38.3106C43.4411 37.3428 43.3375 36.6393 43.1308 36.1997C42.9241 35.7604 42.5583 35.5405 42.0338 35.5405C41.6792 35.5405 41.3968 35.6458 41.1861 35.8563C40.9756 36.0667 40.8314 36.377 40.754 36.7872C40.6765 37.1971 40.6377 37.7198 40.6377 38.3551C40.6377 39.0129 40.6765 39.5483 40.754 39.962C40.8314 40.3759 40.9739 40.6877 41.1806 40.8984C41.3873 41.1088 41.672 41.2141 42.0338 41.2141C42.5805 41.2141 42.9518 40.9815 43.1475 40.5161C43.343 40.0501 43.4411 39.3152 43.4411 38.3106ZM52.9042 35.6177L43.6737 50.4994C43.4372 50.9055 43.1714 51.1088 42.8761 51.1088C42.706 51.1088 42.5361 51.044 42.3663 50.9148C42.1962 50.7855 42.1115 50.6174 42.1115 50.4105C42.1115 50.2553 42.1852 50.067 42.3332 49.8454L51.6186 34.8419C51.781 34.5687 51.9235 34.3638 52.0452 34.2271C52.1673 34.0903 52.3428 34.0221 52.5717 34.0221C52.7934 34.0221 52.9722 34.0868 53.1091 34.2161C53.2459 34.3453 53.3141 34.5172 53.3141 34.7314C53.3141 34.8865 53.1776 35.1819 52.9042 35.6177ZM56.8602 46.4328C56.8602 47.8438 56.5499 48.8928 55.9293 49.5796C55.3087 50.2668 54.4592 50.6102 53.3806 50.6102C52.7084 50.6102 52.108 50.4625 51.58 50.1669C51.0518 49.8715 50.6382 49.4173 50.3388 48.8039C50.0397 48.1908 49.89 47.4337 49.89 46.5324C49.89 45.0919 50.1652 44.0079 50.7156 43.2802C51.2657 42.5527 52.1396 42.1886 53.3363 42.1886C53.9125 42.1886 54.4166 42.2773 54.8489 42.4546C55.281 42.6319 55.6504 42.8979 55.9569 43.2525C56.2632 43.6072 56.4906 44.0487 56.6385 44.5767C56.7862 45.1049 56.8602 45.7235 56.8602 46.4328ZM54.7879 46.322C54.7879 45.3689 54.6843 44.6728 54.4776 44.2333C54.2709 43.7939 53.9051 43.574 53.3806 43.574C53.011 43.574 52.7229 43.6776 52.5164 43.8843C52.3095 44.0913 52.1633 44.3959 52.0786 44.7986C51.9937 45.2013 51.9511 45.7238 51.9511 46.3665C51.9511 47.3565 52.0564 48.0804 52.2669 48.5384C52.4776 48.9966 52.8486 49.2255 53.3806 49.2255C53.9198 49.2255 54.2893 48.9912 54.4888 48.522C54.6883 48.0525 54.7879 47.3191 54.7879 46.322Z" fill="#FFEA92"/>
<path d="M50.4218 74.4781H22.8226C21.4893 74.4781 20.2433 73.7625 19.571 72.611L5.79847 49.0008C5.116 47.8308 5.116 46.3771 5.79847 45.2071L19.571 21.5969C20.2433 20.4447 21.4897 19.7294 22.8226 19.7294H50.4218C51.7555 19.7294 53.0015 20.445 53.6735 21.5969L67.446 45.2071C68.1285 46.3771 68.1285 47.8305 67.446 49.0008L53.6735 72.611C53.0012 73.7625 51.7555 74.4781 50.4218 74.4781ZM22.8226 21.2348C22.0227 21.2348 21.2755 21.6643 20.8716 22.3558L7.09905 45.9656C6.68949 46.6677 6.68949 47.5398 7.09905 48.2415L20.8716 71.8517C21.2747 72.5428 22.0227 72.9723 22.8226 72.9723H50.4218C51.2221 72.9723 51.9694 72.5428 52.3729 71.8517L66.1454 48.2415C66.555 47.5395 66.555 46.6673 66.1454 45.9656L52.3729 22.3554C51.9697 21.6643 51.2221 21.2348 50.4218 21.2348H22.8226Z" fill="#42A4FA"/>
<path d="M20.3508 72.4224C20.2363 72.4875 20.126 72.5632 20.0285 72.6607L6.00719 86.6824C5.41883 87.2704 5.41883 88.2239 6.00719 88.8119C6.30118 89.1059 6.68665 89.2531 7.07174 89.2531C7.45683 89.2531 7.84267 89.1059 8.13629 88.8119L22.1576 74.7902C22.4554 74.4924 22.6011 74.1009 22.5973 73.7106C21.6912 73.6424 20.8672 73.17 20.3508 72.4224V72.4224Z" fill="#FFEA92"/>
<path d="M67.238 86.6824L53.2163 72.6607C53.1188 72.5632 53.0085 72.4879 52.8941 72.4224C52.3776 73.1696 51.5536 73.6421 50.6475 73.7106C50.6438 74.1009 50.7894 74.4924 51.0872 74.7902L65.1089 88.8119C65.4025 89.1059 65.7884 89.2531 66.1735 89.2531C66.5586 89.2531 66.9444 89.1059 67.238 88.8119C67.826 88.2239 67.826 87.2704 67.238 86.6824V86.6824Z" fill="#FFEA92"/>
<path d="M83.3787 45.6487L67.686 45.5986C67.6845 45.5986 67.6826 45.5986 67.6811 45.5986C67.3984 45.5986 67.1364 45.6814 66.9102 45.8173C67.2968 46.6327 67.2968 47.576 66.9102 48.3914C67.1349 48.5265 67.395 48.6093 67.6762 48.6101L83.3689 48.6602H83.3738C84.2031 48.6602 84.8769 47.9894 84.8795 47.1593C84.8821 46.3278 84.2102 45.6513 83.3787 45.6487V45.6487Z" fill="#FFEA92"/>
<path d="M20.1247 22.1421L20.2215 21.976C20.6698 21.2077 21.4306 20.6905 22.2884 20.5358C22.2354 20.2456 22.098 19.9682 21.8736 19.7438L3.32306 1.19361C2.73545 0.605628 1.78119 0.605628 1.19396 1.19361C0.605595 1.7816 0.605595 2.7351 1.19396 3.32309L19.7441 21.8733C19.8582 21.9873 19.9885 22.0724 20.1247 22.1421Z" fill="#FFEA92"/>
<path d="M7.07158 90.0052C6.46816 90.0052 5.90125 89.7703 5.47476 89.3438C5.04788 88.9173 4.81299 88.3501 4.81299 87.7466C4.81299 87.1432 5.04788 86.5763 5.47476 86.1494L19.4961 72.1281C19.629 71.9948 19.7867 71.8766 19.9783 71.7675C20.3167 71.5748 20.7481 71.6726 20.9702 71.9937C21.3587 72.5561 21.9723 72.9081 22.654 72.9593C23.0436 72.9886 23.3462 73.3112 23.3504 73.7023C23.3568 74.3144 23.1226 74.8896 22.6905 75.3218L8.66878 89.3435C8.24266 89.7703 7.675 90.0052 7.07158 90.0052ZM20.2757 73.478L6.53931 87.2144C6.39701 87.3567 6.31872 87.5456 6.31872 87.7466C6.31872 87.9477 6.39701 88.137 6.53931 88.2789C6.82389 88.5635 7.31965 88.5631 7.60348 88.2793L21.6109 74.2719C21.1148 74.104 20.6608 73.8341 20.2757 73.478V73.478Z" fill="#42A4FA"/>
<path d="M66.1735 90.0053C65.5697 90.0053 65.0024 89.77 64.5763 89.3435L50.5549 75.3222C50.1232 74.8904 49.8883 74.3149 49.8947 73.7024C49.8988 73.3113 50.2011 72.9887 50.5911 72.9593C51.2728 72.9082 51.886 72.5562 52.2748 71.9942C52.4969 71.6727 52.9276 71.5752 53.2667 71.7679C53.4572 71.8764 53.6149 71.9938 53.7486 72.1274L67.7707 86.1495C68.1975 86.576 68.4324 87.1433 68.4324 87.7463C68.4324 88.3498 68.1975 88.9171 67.7707 89.3435C67.3445 89.7704 66.7773 90.0053 66.1735 90.0053V90.0053ZM51.6342 74.272L65.6412 88.279C65.9258 88.5636 66.4215 88.5632 66.7054 88.2794C66.848 88.1367 66.9263 87.9477 66.9263 87.7463C66.9263 87.5453 66.848 87.3564 66.7057 87.2141L52.9694 73.4777C52.5839 73.8342 52.1295 74.1041 51.6342 74.272V74.272Z" fill="#42A4FA"/>
<path d="M83.3735 49.4126L67.6733 49.3626C67.2735 49.3615 66.8756 49.2485 66.5222 49.0362C66.1902 48.8367 66.0633 48.4181 66.2297 48.068C66.5199 47.4556 66.5199 46.752 66.2293 46.1388C66.0637 45.7887 66.1902 45.3698 66.5229 45.1706C66.8779 44.958 67.2784 44.8454 67.6805 44.8454L83.3807 44.8955C84.6259 44.8992 85.6355 45.9156 85.6318 47.1612C85.6284 48.4027 84.615 49.4126 83.3735 49.4126ZM67.877 47.8572L83.3713 47.9069C83.7872 47.9069 84.1253 47.5704 84.1264 47.1563C84.1272 46.9553 84.0492 46.766 83.9077 46.6233C83.7658 46.4806 83.5772 46.4016 83.3762 46.4012C83.3762 46.4012 83.3762 46.4012 83.3758 46.4012L67.8773 46.3515C67.979 46.8488 67.979 47.3603 67.877 47.8572Z" fill="#42A4FA"/>
<path d="M20.1244 22.8953C20.0081 22.8953 19.8907 22.8686 19.7807 22.8122C19.5553 22.6962 19.3689 22.563 19.2116 22.4049L0.661767 3.85542C0.234894 3.42892 0 2.86164 0 2.25859C0 1.65517 0.234894 1.08789 0.661767 0.661391C1.08789 0.234894 1.65517 0 2.25859 0C2.86201 0 3.42929 0.234893 3.85579 0.661767L22.4056 19.212C22.7301 19.5364 22.9458 19.9475 23.0286 20.4004C23.0651 20.5972 23.0211 20.8005 22.9074 20.965C22.7937 21.1295 22.6187 21.2417 22.4222 21.2774C21.7679 21.3956 21.2025 21.7886 20.8713 22.3563L20.7749 22.5215C20.636 22.7606 20.3838 22.8953 20.1244 22.8953ZM2.25897 1.50573C2.05795 1.50573 1.86898 1.58403 1.72707 1.72594C1.5844 1.86823 1.5061 2.05758 1.5061 2.25859C1.5061 2.45961 1.5844 2.64858 1.72669 2.79087L19.9723 21.0365C20.3074 20.6492 20.7173 20.3352 21.1777 20.1128L2.79124 1.72594C2.64895 1.58365 2.45998 1.50573 2.25897 1.50573Z" fill="#42A4FA"/>
</svg>
