<svg width="102" height="90" viewBox="0 0 102 90" fill="none" xmlns="http://www.w3.org/2000/svg">
<path d="M77.7795 43.916L79.2655 21.2122H54.1992H41.7954H16.7295L18.2155 43.916C18.5168 48.5192 18.5482 53.1359 18.3096 57.7427L16.9826 83.3784C16.8448 86.0385 18.9643 88.2705 21.6278 88.2705H41.7954H54.1992H74.3668C77.0303 88.2705 79.1498 86.0385 79.012 83.3787L77.685 57.7431C77.4468 53.1359 77.4782 48.5192 77.7795 43.916V43.916Z" fill="#A4C9FF"/>
<path d="M74.3669 88.9999H21.6279C20.1379 88.9999 18.7518 88.405 17.7257 87.3243C16.6997 86.2439 16.177 84.829 16.254 83.3408L17.5809 57.7051C17.8169 53.1428 17.7856 48.5195 17.4872 43.9638L16.0015 21.2597C15.9884 21.0583 16.0592 20.8606 16.1971 20.7132C16.3349 20.5659 16.5275 20.4824 16.7292 20.4824H79.2652C79.4669 20.4824 79.6599 20.5659 79.7974 20.7132C79.9353 20.8606 80.006 21.0583 79.9929 21.2597L78.5072 43.9638C78.2092 48.5195 78.1775 53.1428 78.4135 57.7051L79.7405 83.3408C79.8175 84.829 79.2948 86.2435 78.2687 87.3243C77.243 88.405 75.8573 88.9999 74.3669 88.9999ZM17.5083 21.9417L18.9433 43.8686C19.2453 48.4809 19.2774 53.1618 19.0385 57.7806L17.7112 83.4163C17.655 84.5011 18.0361 85.5319 18.7839 86.3194C19.532 87.1072 20.542 87.5409 21.6279 87.5409H74.3669C75.4532 87.5409 76.4632 87.1072 77.2109 86.3194C77.9587 85.5319 78.3398 84.5007 78.2833 83.4163L76.9563 57.7806C76.7174 53.1614 76.7495 48.4809 77.0515 43.8682L78.4865 21.9417H17.5083ZM77.7796 43.916H77.7832H77.7796Z" fill="#42A4FA"/>
<path d="M79.2655 21.2122H16.7295V17.2069C16.7295 15.4943 18.1177 14.1057 19.8306 14.1057H76.1647C77.8772 14.1057 79.2658 15.494 79.2658 17.2069V21.2122H79.2655Z" fill="#F9CFCF"/>
<path d="M79.2655 21.9419H16.7295C16.3268 21.9419 16 21.6151 16 21.2124V17.2071C16 15.0948 17.7184 13.3768 19.8303 13.3768H76.1644C78.2766 13.3768 79.9946 15.0951 79.9946 17.2071V21.2124C79.995 21.6151 79.6682 21.9419 79.2655 21.9419ZM17.459 20.4829H78.536V17.2071C78.536 15.8994 77.472 14.8358 76.1647 14.8358H19.8303C18.5226 14.8358 17.459 15.8998 17.459 17.2071V20.4829Z" fill="#42A4FA"/>
<path d="M32.2411 76.6418C30.4655 76.6418 29.0525 75.1536 29.1444 73.3805L29.9228 58.3439C30.1836 53.3045 30.1489 48.195 29.8192 43.157L29.3603 36.1446C29.2432 34.3563 30.6625 32.8411 32.4545 32.8411H63.5407C65.3331 32.8411 66.752 34.3559 66.6349 36.1446L66.176 43.157C65.8463 48.1932 65.8116 53.303 66.0724 58.3443L66.8508 73.3809C66.9427 75.154 65.5297 76.6422 63.7541 76.6422H32.2411V76.6418Z" fill="#F9A7A7"/>
<path d="M56.3659 57.2336C58.7514 56.8266 60.991 55.767 62.8873 54.1398C63.0584 53.9932 63.0048 53.7159 62.7925 53.6408C60.438 52.8073 57.9675 52.6264 55.5962 53.1061C54.3991 53.3103 53.2385 53.6795 52.1398 54.2014C53.5401 53.4602 54.8153 52.5082 55.9198 51.3717C57.7786 49.565 59.1471 47.3043 59.8996 44.7813C59.9649 44.5624 59.7599 44.3574 59.5411 44.4227C57.0181 45.1752 54.7573 46.5438 52.9507 48.4026C52.0381 49.2893 51.2447 50.2862 50.5834 51.3691C51.1371 49.526 51.4056 47.6194 51.376 45.7027C51.4282 42.2918 50.5386 38.9146 48.7743 35.8667C48.6156 35.5928 48.218 35.5928 48.0597 35.8667C46.2954 38.9146 45.4058 42.2918 45.4579 45.7027C45.428 47.6574 45.7089 49.6004 46.2852 51.4774C45.6111 50.3525 44.7952 49.3188 43.8523 48.4026C42.0456 46.5438 39.7849 45.1752 37.2619 44.4227C37.043 44.3574 36.838 44.5624 36.9033 44.7813C37.6558 47.3043 39.0244 49.565 40.8832 51.3717C41.9876 52.5082 43.2628 53.4602 44.6631 54.2014C43.5645 53.6791 42.4038 53.3103 41.2067 53.1061C38.8354 52.6261 36.365 52.8073 34.0105 53.6408C33.7982 53.7159 33.7446 53.9932 33.9156 54.1398C35.812 55.7666 38.0516 56.8262 40.4371 57.2336C41.8607 57.5218 43.3197 57.5696 44.7682 57.3832C44.0036 57.4831 43.2548 57.6706 42.534 57.9453C40.8299 58.5362 39.3129 59.5888 38.1176 61.0165C38.0093 61.1456 38.0808 61.3422 38.2467 61.3714C40.08 61.6968 41.9187 61.5282 43.6039 60.8855C45.0012 60.4011 46.2728 59.6053 47.3444 58.5471L47.8514 58.1864L47.1781 66.1362C47.1496 66.471 47.4141 66.7584 47.75 66.7584H48.4168H49.0836C49.4195 66.7584 49.684 66.471 49.6555 66.1362L48.984 58.2061L49.4421 58.5471H49.4429C50.5145 59.6049 51.7857 60.4008 53.1834 60.8852C54.8686 61.5279 56.7073 61.6968 58.5405 61.371C58.7065 61.3415 58.778 61.1452 58.6697 61.0161C57.4744 59.5885 55.9574 58.5358 54.2532 57.9449C53.5266 57.6677 52.7712 57.4806 52.0001 57.3814V57.3795C53.4602 57.5718 54.9313 57.5236 56.3659 57.2336V57.2336Z" fill="#6BDDDD"/>
<path d="M49.0841 67.4887H47.7506C47.3866 67.4887 47.0368 67.3351 46.7905 67.067C46.5443 66.7993 46.4207 66.4378 46.4517 66.0752L46.9791 59.8467C46.034 60.6003 44.9832 61.1795 43.843 61.5749C42.0586 62.2555 40.0721 62.4361 38.1192 62.0899C37.7873 62.0312 37.5094 61.7978 37.3937 61.4815C37.2785 61.1649 37.3416 60.8071 37.5583 60.5485C38.426 59.5115 39.4641 58.6525 40.6149 58.0102C40.5069 57.9908 40.3997 57.9708 40.2921 57.9489C37.8026 57.524 35.4255 56.3972 33.4402 54.6938C33.1648 54.4575 33.0349 54.0883 33.1013 53.7312C33.1681 53.3731 33.4227 53.0751 33.7663 52.9532C36.0412 52.1478 38.4501 51.9202 40.7688 52.2861C40.6302 52.1533 40.4938 52.018 40.3596 51.8801C38.4297 50.0053 36.9878 47.6172 36.2039 44.9899C36.097 44.6314 36.1952 44.2444 36.46 43.9795C36.7248 43.7151 37.1118 43.6173 37.4703 43.7239C40.0977 44.5073 42.4854 45.9496 44.3751 47.8945C44.5466 48.0611 44.7151 48.2322 44.8792 48.4077C44.7651 47.5064 44.7144 46.5996 44.7282 45.6913C44.6742 42.1777 45.6076 38.6461 47.4281 35.5012C47.6317 35.1499 48.0103 34.9318 48.4166 34.9318C48.8233 34.9318 49.2019 35.1499 49.4055 35.5012C51.2256 38.6458 52.1594 42.1773 52.1054 45.714C52.1189 46.5981 52.0704 47.4852 51.9602 48.369C52.117 48.2023 52.2779 48.0393 52.4417 47.8799C54.3169 45.9499 56.7046 44.5077 59.3319 43.7242C59.6901 43.617 60.0774 43.7155 60.3422 43.9803C60.6071 44.2451 60.7052 44.6325 60.5979 44.9906C59.8145 47.6176 58.3722 50.0053 56.4277 51.8951C56.2989 52.0275 56.168 52.1577 56.0341 52.2857C58.3416 51.9188 60.7555 52.146 63.0352 52.9532C63.3788 53.0751 63.6338 53.3734 63.7005 53.7316C63.7669 54.0887 63.6371 54.4575 63.3613 54.6938C61.3789 56.3947 59.0065 57.5207 56.4988 57.9511C56.392 57.9726 56.2847 57.993 56.1775 58.012C57.3224 58.6518 58.3605 59.5115 59.229 60.5489C59.4457 60.8075 59.5088 61.1649 59.3935 61.4819C59.2783 61.7985 59 62.0316 58.6677 62.0903C56.7151 62.4372 54.7283 62.2563 52.9232 61.5676C51.8187 61.185 50.789 60.6204 49.8578 59.8865L50.3819 66.0752C50.4125 66.4382 50.2889 66.7996 50.0427 67.0674C49.7965 67.3351 49.4478 67.4887 49.0841 67.4887V67.4887ZM47.9198 66.0297H48.9149L48.4173 60.1542L47.9198 66.0297ZM39.3342 60.775C40.7105 60.8808 42.0797 60.6864 43.344 60.2045C44.6648 59.7464 45.8312 59.0169 46.8321 58.0288C46.8602 58.0014 46.8901 57.9759 46.9219 57.9533L47.4292 57.5925C47.6612 57.428 47.9672 57.4123 48.2134 57.5535C48.297 57.6013 48.3688 57.664 48.4261 57.7373C48.4823 57.6706 48.5508 57.6133 48.6296 57.5695C48.8802 57.4302 49.1892 57.4499 49.4201 57.6217L49.8578 57.9474C49.8928 57.9715 49.9256 57.9989 49.9562 58.0288C50.9571 59.0169 52.1236 59.7464 53.4232 60.1969C54.705 60.6853 56.079 60.8801 57.4541 60.775C56.4675 59.8102 55.2941 59.0782 54.0156 58.6346C53.3291 58.3731 52.6273 58.1977 51.9084 58.1054C51.5717 58.062 51.3091 57.7924 51.2756 57.4543C51.2533 57.2325 51.3336 57.0122 51.4937 56.8568C51.6534 56.7018 51.8759 56.6285 52.0966 56.6566C53.4816 56.8386 54.8695 56.7919 56.2224 56.5183C56.2296 56.5169 56.2369 56.5154 56.2442 56.5143C58.2405 56.1736 60.1442 55.3383 61.7943 54.0858C59.8035 53.5117 57.727 53.4194 55.7416 53.821C54.5941 54.0172 53.4951 54.3656 52.4537 54.8605C52.0948 55.0301 51.6666 54.8831 51.4886 54.5286C51.3106 54.1741 51.4488 53.7422 51.7993 53.5565C53.1391 52.8474 54.3497 51.9414 55.3973 50.8632C56.9719 49.3323 58.1789 47.4586 58.9299 45.3933C56.8651 46.1444 54.9924 47.3495 53.4747 48.9114C52.5967 49.7649 51.8387 50.7151 51.207 51.7495C51.0159 52.0625 50.6216 52.1843 50.2871 52.0355C49.9522 51.886 49.7804 51.511 49.8858 51.1597C50.4195 49.3834 50.6759 47.5512 50.6478 45.714C50.6949 42.6026 49.9256 39.5124 48.4181 36.7224C46.9105 39.5124 46.1409 42.6019 46.1883 45.6917C46.1595 47.5844 46.4272 49.4519 46.9835 51.2637C47.0915 51.6164 46.9197 51.9943 46.5826 52.1442C46.2456 52.2945 45.8498 52.169 45.6602 51.8528C45.016 50.7782 44.2369 49.7934 43.3443 48.9263C41.8135 47.3513 39.9397 46.1447 37.8741 45.3937C38.6252 47.4589 39.8303 49.3312 41.3922 50.849C42.4551 51.9421 43.6653 52.8482 45.0047 53.5569C45.3552 53.7426 45.4935 54.1744 45.3155 54.529C45.1375 54.8831 44.7085 55.0309 44.3503 54.8605C43.3093 54.3659 42.2103 54.0172 41.0843 53.8253C39.08 53.4201 37.0009 53.5124 35.0097 54.0862C36.6599 55.3391 38.5635 56.174 40.5598 56.5147C41.9211 56.7897 43.298 56.8368 44.675 56.6599C45.0758 56.6073 45.4395 56.89 45.4917 57.2894C45.5434 57.6888 45.2619 58.0547 44.8628 58.1065C44.1519 58.1995 43.456 58.3746 42.7939 58.627C41.4983 59.0763 40.3213 59.8102 39.3342 60.775V60.775Z" fill="#42A4FA"/>
<path d="M43.375 69.9821C43.0912 69.9821 42.8763 70.0744 42.7374 70.2561C42.6265 70.4009 42.5335 70.5869 42.4627 70.8021C42.3237 71.1818 42.118 71.4718 41.8507 71.6633C41.5851 71.854 41.2514 71.9503 40.8589 71.9503C40.4963 71.9503 40.1775 71.8643 39.9116 71.695C39.6479 71.5272 39.4396 71.2657 39.2926 70.9181C39.1394 70.5559 39.0617 70.0897 39.0617 69.5331C39.0617 68.7051 39.2346 68.0639 39.5764 67.6265C39.9094 67.1998 40.346 66.9922 40.9107 66.9922C41.2601 66.9922 41.5548 67.0732 41.7868 67.233C42.0268 67.3982 42.2409 67.6554 42.423 67.9975C42.5557 68.2481 42.6768 68.4235 42.7935 68.5341C42.9329 68.6661 43.132 68.7332 43.3848 68.7332C43.623 68.7332 43.828 68.6416 43.9943 68.4618C44.1559 68.2867 44.238 68.0807 44.238 67.8494C44.238 67.4847 44.0957 67.0991 43.8156 66.7033C43.5413 66.316 43.1444 65.9881 42.6367 65.7287C42.1293 65.4697 41.545 65.3381 40.9001 65.3381C40.3716 65.3381 39.8664 65.4336 39.3981 65.6226C38.9272 65.8126 38.5106 66.0931 38.1604 66.456C37.8099 66.819 37.5374 67.2607 37.3507 67.7692C37.1654 68.2729 37.0713 68.8492 37.0713 69.482C37.0713 69.8712 37.1085 70.2444 37.1822 70.5913C37.2559 70.9403 37.3682 71.2741 37.5163 71.5834C37.6644 71.8927 37.8468 72.1768 38.0587 72.4289C38.2965 72.7072 38.562 72.9352 38.8484 73.107C39.1336 73.278 39.4546 73.4057 39.8026 73.4863C40.1443 73.5655 40.5277 73.6056 40.9417 73.6056C41.4954 73.6056 41.99 73.5148 42.4117 73.3349C42.8337 73.1551 43.1868 72.9162 43.461 72.6255C43.7324 72.3373 43.9352 72.0375 44.0636 71.7344C44.1931 71.428 44.2591 71.1362 44.2591 70.8666C44.2591 70.6172 44.1709 70.4049 43.9969 70.2353C43.8243 70.0671 43.615 69.9821 43.375 69.9821V69.9821Z" fill="#FFEA92"/>
<path d="M50.7142 69.2135C51.2788 68.8251 51.5644 68.2794 51.5644 67.5857C51.5644 67.3413 51.5235 67.1049 51.4426 66.8835C51.3623 66.6628 51.2434 66.4582 51.0895 66.2755C50.9363 66.0938 50.7579 65.9417 50.5606 65.8239C50.3279 65.6827 50.062 65.5864 49.7709 65.5372C49.4948 65.4905 49.1661 65.4672 48.7945 65.4672H46.3404C45.9548 65.4672 45.6641 65.5624 45.4763 65.7506C45.2884 65.9388 45.1929 66.2328 45.1929 66.6253V72.3183C45.1929 72.7021 45.2855 72.9931 45.4675 73.1843C45.6525 73.3783 45.9465 73.4764 46.3408 73.4764H48.6551C49.0622 73.4764 49.4247 73.456 49.7322 73.4151C50.0496 73.3732 50.3359 73.2995 50.5869 73.1945C50.9939 73.0157 51.3215 72.7353 51.5611 72.3606C51.8 71.9875 51.9208 71.5629 51.9208 71.0993C51.9204 70.2279 51.5152 69.5958 50.7142 69.2135V69.2135ZM49.5225 68.1693C49.4382 68.3243 49.3212 68.4264 49.1647 68.4808C48.9801 68.5446 48.7062 68.5771 48.3502 68.5771H47.1625V67.0542H48.1901C48.7135 67.0542 49.1016 67.1107 49.3438 67.2227C49.4649 67.2785 49.6257 67.3982 49.6257 67.7874C49.6254 67.9274 49.5929 68.05 49.5225 68.1693V68.1693ZM47.1625 70.1127H48.5413C49.0304 70.1127 49.3959 70.1878 49.6275 70.3366C49.8311 70.4672 49.9303 70.6795 49.9303 70.9852C49.9303 71.3729 49.7917 71.8887 48.5931 71.8887H47.1625V70.1127Z" fill="#FFEA92"/>
<path d="M58.4743 66.2082C58.1467 65.9215 57.7761 65.7234 57.3727 65.6187C56.9846 65.518 56.5159 65.467 55.9801 65.467H53.9808C53.592 65.467 53.2984 65.5633 53.1087 65.753C52.919 65.9426 52.8228 66.2362 52.8228 66.6251V72.1788C52.8228 72.4462 52.8465 72.6607 52.8953 72.8343C52.9537 73.0422 53.0799 73.2052 53.2696 73.3187C53.4468 73.4245 53.6894 73.4759 54.0115 73.4759H56.0107C56.3685 73.4759 56.6957 73.4525 56.9831 73.4059C57.2782 73.3584 57.5587 73.2742 57.8162 73.1564C58.0759 73.0375 58.3189 72.8777 58.5395 72.6793C58.8142 72.4265 59.0425 72.1358 59.2184 71.8152C59.3931 71.4967 59.524 71.1349 59.6072 70.7402C59.6889 70.3521 59.7308 69.9181 59.7308 69.4505C59.7316 68.0133 59.3081 66.9216 58.4743 66.2082V66.2082ZM54.7928 67.1164H55.5876C56.0319 67.1164 56.4138 67.1645 56.7223 67.2594C57.0028 67.3455 57.2359 67.5468 57.4343 67.8744C57.6379 68.2103 57.7415 68.737 57.7415 69.4406C57.7415 70.4295 57.5084 71.1276 57.0455 71.519C56.9529 71.6 56.8412 71.6645 56.7132 71.7101C56.5757 71.759 56.4418 71.79 56.3164 71.802C56.1792 71.8148 55.9844 71.8217 55.7375 71.8217H54.7928V67.1164Z" fill="#FFEA92"/>
<path d="M81.839 39.0286C92.4151 39.0286 100.989 30.455 100.989 19.879C100.989 9.30299 92.4151 0.729431 81.839 0.729431C71.263 0.729431 62.6895 9.30299 62.6895 19.879C62.6895 30.455 71.263 39.0286 81.839 39.0286Z" fill="#6BDDDD"/>
<path d="M81.8389 34.1046C89.6954 34.1046 96.0643 27.7356 96.0643 19.8792C96.0643 12.0227 89.6954 5.65375 81.8389 5.65375C73.9825 5.65375 67.6135 12.0227 67.6135 19.8792C67.6135 27.7356 73.9825 34.1046 81.8389 34.1046Z" fill="#FFEA92"/>
<path d="M81.8391 39.7582C70.8778 39.7582 61.96 30.8403 61.96 19.8791C61.96 8.91787 70.8778 0 81.8391 0C92.8003 0 101.718 8.91787 101.718 19.8791C101.718 30.8403 92.8003 39.7582 81.8391 39.7582ZM81.8391 1.45902C71.6821 1.45902 63.419 9.72215 63.419 19.8791C63.419 30.036 71.6821 38.2992 81.8391 38.2992C91.996 38.2992 100.259 30.036 100.259 19.8791C100.259 9.72215 91.996 1.45902 81.8391 1.45902Z" fill="#42A4FA"/>
<path d="M88.7308 18.7076H86.5948C87.5212 17.7192 88.083 16.4407 88.083 15.0411C88.083 14.39 87.956 13.7674 87.7332 13.1853C88.7946 12.8504 89.5646 11.8583 89.5646 10.6856C89.5646 9.23826 88.3912 8.06485 86.9438 8.06485C85.7712 8.06485 84.779 8.83521 84.4442 9.89701C83.6505 9.56545 82.7703 9.37541 81.8391 9.37541C81.0122 9.37541 80.2251 9.5246 79.5029 9.78941C79.1363 8.78414 78.1748 8.06485 77.0426 8.06485C75.5953 8.06485 74.4218 9.23826 74.4218 10.6856C74.4218 11.7569 75.0653 12.6764 75.9863 13.0831C75.7379 13.6941 75.5953 14.3517 75.5953 15.0411C75.5953 16.4403 76.157 17.7192 77.0834 18.7076H74.9474C73.9258 18.7076 73.0974 19.536 73.0974 20.5577V21.8682C73.0974 22.8899 73.9258 23.7183 74.9474 23.7183H75.9359C75.9877 24.0754 76.0632 24.423 76.1665 24.7582L74.1935 26.7311C73.4709 27.4537 73.4709 28.6249 74.1935 29.3475L75.12 30.2744C75.8426 30.9969 77.0138 30.9969 77.7364 30.2744L79.3934 28.6173C80.1408 28.9802 80.967 29.187 81.8391 29.187C82.7112 29.187 83.5374 28.9802 84.2848 28.6173L85.9419 30.2744C86.6644 30.9969 87.8357 30.9969 88.5582 30.2744L89.4847 29.3475C90.2073 28.6249 90.2073 27.4537 89.4847 26.7311L87.5118 24.7582C87.615 24.423 87.6905 24.0754 87.7423 23.7183H88.7308C89.7524 23.7183 90.5808 22.8899 90.5808 21.8682V20.5577C90.5808 19.536 89.7524 18.7076 88.7308 18.7076V18.7076Z" fill="#F9A7A7"/>
<path d="M78.7356 18.7392C78.5977 18.7392 78.4583 18.7005 78.3347 18.6188C77.0909 17.7988 76.5525 16.222 76.8191 14.1786C76.8717 13.7792 77.2401 13.5009 77.6369 13.5494C78.0363 13.6016 78.3179 13.9678 78.2661 14.3672C78.1556 15.2127 78.122 16.7312 79.1379 17.4005C79.4742 17.6223 79.5672 18.0746 79.3454 18.4112C79.205 18.6239 78.9726 18.7392 78.7356 18.7392V18.7392Z" fill="#F9CFCF"/>
<path d="M88.0832 28.6332C87.8965 28.6332 87.7101 28.562 87.5675 28.4194L85.3789 26.2309C85.0941 25.946 85.0941 25.4842 85.3789 25.1994C85.6638 24.9145 86.1256 24.9145 86.4105 25.1994L88.599 27.3879C88.8839 27.6728 88.8839 28.1345 88.599 28.4194C88.4564 28.562 88.27 28.6332 88.0832 28.6332V28.6332Z" fill="#F9CFCF"/>
<path d="M24.7368 33.3995H18.9915H12.8358H7.09044L3.34689 36.6546C1.68431 38.1005 0.729736 40.1957 0.729736 42.3989V59.7254V68.7653V83.5144C0.729736 86.1421 2.85994 88.272 5.48731 88.272H26.3403C28.9681 88.272 31.0979 86.1418 31.0979 83.5144V68.7653V59.7254V42.3989C31.0979 40.1954 30.1433 38.1002 28.4804 36.6546L24.7368 33.3995Z" fill="#42A4FA"/>
<path d="M7.29579 54.922C6.21281 56.393 5.56974 58.1588 5.54055 60.0607C5.46359 65.0747 9.82139 69.3607 15.2848 69.6229C21.2245 69.9082 26.1382 65.5781 26.1382 60.196C26.1382 58.2424 25.4908 56.4277 24.3819 54.9216H24.3823L24.3797 54.9179C24.3797 54.9179 24.3797 54.9179 24.3794 54.9176L16.6971 44.3096C16.2897 43.7471 15.3884 43.7471 14.9809 44.3096L7.29943 54.9168C7.29907 54.9176 7.29834 54.9183 7.29797 54.9187L7.29579 54.922Z" fill="#FFEA92"/>
<path d="M6.90308 28.8005H24.9248V33.3997H6.90308V28.8005Z" fill="#4671C6"/>
<path d="M5.03724 28.8007H26.7905C27.8414 28.8007 28.6934 27.9486 28.6934 26.8977V20.8708C28.6934 19.8199 27.8414 18.9678 26.7905 18.9678H5.03724C3.98636 18.9678 3.13428 19.8199 3.13428 20.8708V26.8974C3.13391 27.9486 3.986 28.8007 5.03724 28.8007V28.8007Z" fill="#6BDDDD"/>
<path d="M21.1079 18.9674H10.7202V5.9232C10.7202 3.05472 13.0456 0.72937 15.914 0.72937C18.7825 0.72937 21.1079 3.05472 21.1079 5.9232V18.9674Z" fill="#6BDDDD"/>
<path d="M24.9245 34.1291H6.90311C6.50041 34.1291 6.17358 33.8022 6.17358 33.3995V28.8006C6.17358 28.3979 6.50041 28.0711 6.90311 28.0711H24.9245C25.3272 28.0711 25.654 28.3979 25.654 28.8006V33.3999C25.654 33.8026 25.3276 34.1291 24.9245 34.1291V34.1291ZM7.63263 32.67H24.195V29.5298H7.63263V32.67Z" fill="#3762CC"/>
<path d="M26.7903 29.5299H5.03739C3.586 29.5299 2.40454 28.3488 2.40454 26.8975V20.8705C2.40454 19.4191 3.58564 18.238 5.03739 18.238H26.7906C28.242 18.238 29.4235 19.4191 29.4235 20.8705V26.8971C29.4231 28.3488 28.242 29.5299 26.7903 29.5299V29.5299ZM5.03739 19.6971C4.3903 19.6971 3.86358 20.2234 3.86358 20.8705V26.8971C3.86358 27.5442 4.38994 28.0705 5.03739 28.0705H26.7906C27.4377 28.0705 27.9644 27.5442 27.9644 26.8971V20.8705C27.9644 20.2234 27.4381 19.6971 26.7906 19.6971H5.03739Z" fill="#42A4FA"/>
<path d="M26.3401 89.0017H5.48746C2.46177 89.0017 0 86.5399 0 83.5146V42.3991C0 39.9833 1.0454 37.6889 2.86812 36.1044L6.61166 32.8493C6.74443 32.734 6.91441 32.6702 7.09059 32.6702H24.7374C24.9132 32.6702 25.0832 32.7336 25.2163 32.8493L28.9598 36.1044C30.7825 37.6893 31.8279 39.9836 31.8279 42.3991V83.5146C31.8276 86.5399 29.3658 89.0017 26.3401 89.0017ZM7.36343 34.1288L3.82598 37.2052C2.32207 38.5129 1.45941 40.406 1.45941 42.3991V83.5146C1.45941 85.7356 3.26643 87.5426 5.48783 87.5426H26.3405C28.5619 87.5426 30.3689 85.7356 30.3689 83.5146V42.3991C30.3689 40.406 29.5062 38.5129 28.0023 37.2052L24.4649 34.1288H7.36343Z" fill="#42A4FA"/>
<path d="M21.1073 19.6971H10.7193C10.3166 19.6971 9.98975 19.3703 9.98975 18.9676V5.92335C9.99011 2.65728 12.6474 0 15.9135 0C19.1795 0 21.8368 2.65728 21.8368 5.92335V18.9676C21.8368 19.3703 21.5104 19.6971 21.1073 19.6971ZM11.4492 18.238H20.3781V5.92335C20.3778 3.46195 18.3752 1.45904 15.9135 1.45904C13.4517 1.45904 11.4492 3.46195 11.4492 5.92335V18.238Z" fill="#42A4FA"/>
<path d="M23.7313 60.9054C23.8087 60.839 23.8433 60.7398 23.8247 60.6395C23.8057 60.5388 23.7372 60.4582 23.6405 60.4239C22.8205 60.1336 21.9743 59.9866 21.1251 59.9866C20.6422 59.9866 20.1578 60.0351 19.6898 60.1299C19.4399 60.1726 19.1922 60.2284 18.9482 60.297C19.3141 60.0278 19.6562 59.7294 19.9721 59.4044C20.9898 58.4152 21.7448 57.1651 22.1552 55.7896C22.1807 55.7043 22.1647 55.6142 22.1114 55.543C22.0585 55.4719 21.9746 55.4296 21.8871 55.4296C21.8601 55.4296 21.8331 55.4336 21.8069 55.4413C20.431 55.8516 19.1813 56.6067 18.1946 57.6218C17.8725 57.9348 17.576 58.2747 17.3079 58.6369C17.4841 57.852 17.5669 57.0528 17.5548 56.2536C17.5833 54.3915 17.0916 52.5316 16.1323 50.8745C16.0695 50.7661 15.9572 50.7016 15.8317 50.7016C15.7062 50.7016 15.5939 50.7661 15.5311 50.8745C14.5718 52.5316 14.0801 54.3915 14.1086 56.2496C14.0962 57.0623 14.1819 57.8739 14.3639 58.6709C14.0896 58.2959 13.785 57.9454 13.4546 57.6236C12.4653 56.606 11.2157 55.8509 9.83978 55.4405C9.81351 55.4325 9.78652 55.4289 9.75953 55.4289C9.67198 55.4289 9.58809 55.4712 9.5352 55.5423C9.48194 55.6138 9.46626 55.7035 9.49143 55.7889C9.90178 57.1644 10.6565 58.4144 11.672 59.4011C11.9893 59.7276 12.3322 60.0267 12.6984 60.2962C12.4551 60.2277 12.2085 60.1722 11.9605 60.1299C11.4885 60.0343 11.0045 59.9862 10.5215 59.9862C9.67235 59.9862 8.8261 60.1336 8.00576 60.4235C7.9091 60.4578 7.84052 60.5381 7.82155 60.6391C7.80295 60.7394 7.83797 60.8386 7.91493 60.905C8.95085 61.7936 10.1899 62.3816 11.4951 62.6044C11.8686 62.68 12.2505 62.7259 12.6338 62.7416C12.6266 62.7442 12.6193 62.7471 12.612 62.75C11.6716 63.0761 10.8275 63.663 10.171 64.4472C10.1148 64.5143 10.0991 64.6037 10.1287 64.6858C10.1586 64.7679 10.2279 64.8262 10.3143 64.8415C10.6477 64.9006 10.9859 64.9305 11.3192 64.9305C11.9944 64.9305 12.6524 64.8102 13.2718 64.5738C14.0447 64.3057 14.7378 63.8735 15.3327 63.2884L15.3801 63.2548L15.0391 67.2836C15.0289 67.4043 15.0701 67.5251 15.1522 67.6141C15.2342 67.7034 15.3506 67.7545 15.472 67.7545H16.1928C16.3139 67.7545 16.4306 67.7034 16.5127 67.6141C16.5948 67.5247 16.636 67.4043 16.6258 67.2836L16.2862 63.2734L16.3074 63.2891C16.9019 63.8738 17.595 64.3064 18.3639 64.5727C18.9869 64.8102 19.6449 64.9305 20.3197 64.9305C20.6531 64.9305 20.9912 64.9006 21.3246 64.8415C21.4111 64.8262 21.4804 64.7682 21.5103 64.6858C21.5402 64.6033 21.5245 64.5147 21.468 64.4472C20.8114 63.663 19.9674 63.0761 19.0307 62.7511C19.0226 62.7482 19.0146 62.7449 19.0069 62.742C19.3921 62.7266 19.7755 62.6803 20.1487 62.6048C21.456 62.3819 22.6954 61.7943 23.7313 60.9054V60.9054Z" fill="#6BDDDD"/>
</svg>
