<svg width="73" height="91" viewBox="0 0 73 91" fill="none" xmlns="http://www.w3.org/2000/svg">
<path d="M41.9678 63.5533H38.4984C38.491 63.5529 38.4836 63.5518 38.4759 63.5518L38.4748 63.5533H15.6524C9.62327 63.5533 4.7356 68.441 4.7356 74.4705V77.5V79.9468V81.5016V84.3817V89.3096H52.885V84.3817V81.5016V79.9468V77.5V74.4705C52.885 68.4413 47.9973 63.5533 41.9678 63.5533V63.5533Z" fill="#FFEA92"/>
<path d="M50.3517 32.4659C50.3059 32.4659 50.262 32.4718 50.2163 32.4725V30.4682C50.2163 18.7524 40.6324 9.25491 28.81 9.25491C16.9875 9.25491 7.40367 18.7524 7.40367 30.4682V32.4725C7.35828 32.4718 7.31399 32.4659 7.26823 32.4659C3.66152 32.4659 0.737549 35.3633 0.737549 38.9379C0.737549 42.5121 3.66152 45.4099 7.26823 45.4099C7.50516 45.4099 7.7384 45.3958 7.96906 45.3715C10.1785 54.7556 18.6674 61.7487 28.8103 61.7487C38.9533 61.7487 47.4421 54.7556 49.6512 45.3711C49.8815 45.3955 50.1151 45.4095 50.3521 45.4095C53.9588 45.4095 56.8827 42.5121 56.8827 38.9375C56.8824 35.3633 53.9584 32.4659 50.3517 32.4659V32.4659Z" fill="#F9CFCF"/>
<path d="M18.1728 42.9226C16.7479 42.9226 15.5884 41.7634 15.5884 40.3385V36.0317C15.5884 34.6068 16.7476 33.4476 18.1728 33.4476C19.5974 33.4476 20.7569 34.6068 20.7569 36.0317V40.3385C20.7569 41.7634 19.5977 42.9226 18.1728 42.9226V42.9226Z" fill="#42A4FA"/>
<path d="M39.3467 42.9226C37.9218 42.9226 36.7622 41.7634 36.7622 40.3385V36.0317C36.7622 34.6068 37.9214 33.4476 39.3467 33.4476C40.7712 33.4476 41.9307 34.6068 41.9307 36.0317V40.3385C41.9307 41.7634 40.7712 42.9226 39.3467 42.9226Z" fill="#42A4FA"/>
<path d="M28.8101 62.4869C18.6761 62.4869 9.96173 55.799 7.40274 46.1461C7.35772 46.1472 7.31307 46.1476 7.26878 46.1476C3.26091 46.1476 0 42.9129 0 38.9375C0 35.1633 2.93873 32.057 6.66612 31.7521V30.4682C6.66612 18.3642 16.5998 8.51721 28.8105 8.51721C41.0212 8.51721 50.9549 18.3645 50.9549 30.4682V31.7521C54.6819 32.057 57.621 35.1633 57.621 38.9375C57.621 42.9129 54.3601 46.1476 50.3522 46.1476C50.308 46.1476 50.2633 46.1472 50.2186 46.1461C47.6589 55.799 38.9446 62.4869 28.8101 62.4869ZM7.96997 44.6327C8.30876 44.6327 8.60879 44.8655 8.68777 45.2017C10.8788 54.5099 19.1533 61.0107 28.8101 61.0107C38.467 61.0107 46.7418 54.5099 48.9321 45.2017C49.0174 44.8397 49.3595 44.6009 49.7289 44.6367C49.9467 44.66 50.1504 44.6714 50.3515 44.6714C53.5456 44.6714 56.1441 42.0992 56.1441 38.9375C56.1441 35.777 53.5475 33.2055 50.3545 33.204C50.2973 33.208 50.2655 33.2099 50.2338 33.2106C50.019 33.2198 49.8422 33.1398 49.7005 33.001C49.5588 32.8622 49.478 32.6718 49.478 32.4729V30.4682C49.478 19.1783 40.2064 9.99341 28.8098 9.99341C17.4132 9.99341 8.14158 19.1787 8.14158 30.4682V32.4729C8.14158 32.6718 8.0615 32.8622 7.91904 33.001C7.77696 33.1401 7.58616 33.2313 7.38577 33.2106C7.35366 33.2099 7.32192 33.208 7.29055 33.2058C7.28945 33.2058 7.28834 33.2058 7.28723 33.2058C4.07245 33.2058 1.47546 35.777 1.47546 38.9375C1.47546 42.0992 4.0743 44.6714 7.26804 44.6714C7.46917 44.6714 7.67289 44.6603 7.89063 44.6367C7.91757 44.6341 7.94377 44.6327 7.96997 44.6327V44.6327Z" fill="#42A4FA"/>
<path d="M29.3103 52.6466H28.3102C27.7289 52.6466 27.2197 52.5775 26.7536 52.4358C25.9815 52.2011 25.3032 51.8048 24.7921 51.2896C24.1418 50.6338 23.7834 49.8071 23.7834 48.9616C23.7834 48.5542 24.1141 48.2235 24.5215 48.2235C24.929 48.2235 25.2596 48.5542 25.2596 48.9616C25.2596 49.4214 25.4604 49.8669 25.8402 50.25C26.1797 50.5924 26.6443 50.8596 27.1831 51.0239C27.5079 51.1228 27.8766 51.1704 28.3102 51.1704H29.3103C29.744 51.1704 30.1126 51.1224 30.4374 51.0239C30.9766 50.86 31.4408 50.5924 31.7807 50.25C32.1605 49.8669 32.3612 49.4214 32.3612 48.9616C32.3612 48.5542 32.6919 48.2235 33.0993 48.2235C33.5068 48.2235 33.8374 48.5542 33.8374 48.9616C33.8374 49.8071 33.4791 50.6334 32.8288 51.2896C32.3173 51.8048 31.639 52.2015 30.867 52.4358C30.4009 52.5779 29.8916 52.6466 29.3103 52.6466V52.6466Z" fill="#42A4FA"/>
<path d="M28.8103 61.7487C25.3124 61.7487 22.0117 60.9165 19.0969 59.4418V63.1489C19.0969 68.5119 23.4447 72.8596 28.8077 72.8596C34.1707 72.8596 38.5185 68.5119 38.5185 63.1489V59.4444C35.6048 60.9176 32.3059 61.7487 28.8103 61.7487V61.7487Z" fill="#F9CFCF"/>
<path d="M22.8295 29.025H1.45532V21.6035C1.45532 10.0799 10.797 0.73819 22.321 0.73819H28.3232C31.3571 0.73819 33.8165 3.19753 33.8165 6.23148V18.0384C33.8165 24.1063 28.8974 29.025 22.8295 29.025Z" fill="#42A4FA"/>
<path d="M55.825 28.2902H43.3862C38.1007 28.2902 33.8164 24.0056 33.8164 18.7204V5.75873C33.8164 2.98606 36.0643 0.73819 38.8369 0.73819C48.2193 0.73819 55.8254 8.34391 55.8254 17.7266V28.2902H55.825Z" fill="#42A4FA"/>
<path d="M3.70532 29.0247V33.5179C4.73054 32.8547 5.95283 32.4657 7.26885 32.4657C7.31462 32.4657 7.3589 32.4716 7.4043 32.4724V30.4681C7.4043 29.9828 7.42385 29.5023 7.45633 29.0251H3.70532V29.0247Z" fill="#42A4FA"/>
<path d="M50.1011 28.2904C50.1749 29.0067 50.2162 29.7326 50.2162 30.4682V32.4725C50.2616 32.4717 50.3059 32.4658 50.3517 32.4658C51.6651 32.4658 52.8855 32.8537 53.9097 33.515V28.2904H50.1011Z" fill="#42A4FA"/>
<path d="M22.8293 29.763H1.45514C1.04771 29.763 0.717041 29.4324 0.717041 29.0249V21.6037C0.717041 9.69158 10.4083 0 22.3208 0H28.323C31.7592 0 34.5544 2.79554 34.5544 6.23175V18.0384C34.554 24.5033 29.2947 29.763 22.8293 29.763V29.763ZM2.19324 28.2868H22.8293C28.4806 28.2868 33.0782 23.6892 33.0782 18.038V6.23175C33.0782 3.60966 30.9451 1.47619 28.323 1.47619H22.3208C11.2224 1.47619 2.19324 10.5053 2.19324 21.6037V28.2868Z" fill="#42A4FA"/>
<path d="M55.8249 29.0283H43.3861C37.7024 29.0283 33.0779 24.4041 33.0779 18.72V5.75863C33.0779 2.58334 35.6612 0 38.8365 0C48.6108 0 56.563 7.95189 56.563 17.7261V28.2902C56.563 28.698 56.2327 29.0283 55.8249 29.0283V29.0283ZM38.8365 1.47619C36.4753 1.47619 34.5541 3.39709 34.5541 5.75863V18.7204C34.5541 23.5903 38.5162 27.5524 43.3861 27.5524H55.0868V17.7261C55.0868 8.76601 47.797 1.47619 38.8365 1.47619V1.47619Z" fill="#42A4FA"/>
<path d="M3.70514 34.2563C3.58409 34.2563 3.46267 34.2265 3.35233 34.1667C3.11466 34.0375 2.96704 33.7888 2.96704 33.5182V29.0251C2.96704 28.6177 3.29771 28.287 3.70514 28.287H7.45578C7.66023 28.287 7.85546 28.3715 7.99496 28.5213C8.13446 28.6704 8.20605 28.8712 8.19203 29.0753C8.15808 29.5724 8.14184 30.0278 8.14184 30.4681V32.4727C8.14184 32.6717 8.06176 32.8621 7.9193 33.0008C7.77722 33.14 7.5927 33.2311 7.38603 33.2105C7.35429 33.2097 7.32255 33.2079 7.29081 33.2057C7.28786 33.2057 7.28491 33.2057 7.28196 33.2057C6.13791 33.2057 5.04774 33.5282 4.10629 34.1375C3.98451 34.2169 3.84501 34.2563 3.70514 34.2563V34.2563ZM4.44324 29.7632V32.2963C5.14959 31.9992 5.89839 31.8155 6.66565 31.7524V30.4681C6.66565 30.2374 6.6697 30.0034 6.67819 29.7632H4.44324Z" fill="#42A4FA"/>
<path d="M53.9098 34.2527C53.7703 34.2527 53.6308 34.2132 53.5094 34.135C52.5657 33.5257 51.4741 33.2039 50.3514 33.2039C50.2975 33.2079 50.2662 33.2098 50.2341 33.2105C50.0193 33.2197 49.8425 33.1396 49.7008 33.0009C49.5591 32.8621 49.4782 32.6717 49.4782 32.4728V30.4681C49.4782 29.7902 49.4406 29.0831 49.3668 28.366C49.345 28.1582 49.4129 27.9512 49.5528 27.7958C49.693 27.6408 49.8919 27.5522 50.1008 27.5522H53.9094C54.3168 27.5522 54.6475 27.8829 54.6475 28.2903V33.515C54.6475 33.7851 54.4999 34.0338 54.2626 34.1634C54.1526 34.2228 54.0308 34.2527 53.9098 34.2527V34.2527ZM50.9544 31.7524C51.7195 31.8155 52.4672 31.9985 53.1717 32.2942V29.0281H50.9046C50.9378 29.5167 50.9544 29.9987 50.9544 30.4677V31.7524Z" fill="#42A4FA"/>
<path d="M19.099 81.5012C20.0283 81.3425 20.9007 80.9299 21.6395 80.2959C21.7063 80.2387 21.6853 80.1305 21.6026 80.1014C20.6852 79.7766 19.723 79.7061 18.7993 79.8932C18.3328 79.9729 17.8808 80.1165 17.4527 80.3198C17.9981 80.0313 18.4949 79.6604 18.9252 79.2175C19.6492 78.5137 20.1825 77.6328 20.4755 76.65C20.501 76.5648 20.4213 76.4851 20.336 76.5105C19.3533 76.8036 18.4723 77.3368 17.7686 78.0609C17.4132 78.4063 17.1039 78.7946 16.8463 79.2164C17.0622 78.4982 17.1666 77.7557 17.1552 77.0087C17.1755 75.6802 16.829 74.3645 16.1418 73.1769C16.0802 73.0703 15.9252 73.0703 15.8635 73.1769C15.1764 74.3641 14.8295 75.6798 14.8501 77.0087C14.8383 77.7701 14.9479 78.5274 15.1723 79.2585C14.9095 78.82 14.5918 78.4174 14.2246 78.0605C13.5208 77.3365 12.6399 76.8032 11.6571 76.5102C11.5719 76.4847 11.4922 76.5644 11.5176 76.6497C11.8106 77.6324 12.3439 78.5134 13.068 79.2171C13.4983 79.66 13.995 80.0309 14.5405 80.3195C14.1124 80.1161 13.6603 79.9722 13.1938 79.8929C12.2701 79.7058 11.3076 79.7766 10.3905 80.101C10.3079 80.1302 10.2868 80.2383 10.3536 80.2955C11.0925 80.9291 11.9649 81.3421 12.8942 81.5008C13.4489 81.613 14.0172 81.6318 14.5815 81.5591C14.2836 81.5979 13.9917 81.6709 13.7112 81.778C13.0473 82.0082 12.4565 82.4183 11.9907 82.9744C11.9487 83.0246 11.9764 83.1014 12.0409 83.1128C12.755 83.2398 13.4714 83.1737 14.1279 82.9235C14.6723 82.7345 15.1675 82.4249 15.5853 82.0127L15.7827 81.8721L15.5203 84.9691C15.5093 85.0998 15.6122 85.2116 15.7432 85.2116H16.003H16.2628C16.3939 85.2116 16.4968 85.0998 16.4858 84.9691L16.2241 81.8798L16.4027 82.0127H16.4031C16.8205 82.4249 17.3157 82.7349 17.8601 82.9235C18.5166 83.1737 19.233 83.2398 19.9471 83.1128C20.0116 83.1014 20.0397 83.025 19.9973 82.9744C19.5315 82.4183 18.9407 82.0082 18.2767 81.778C17.9937 81.6698 17.6992 81.5971 17.3992 81.5584V81.5576C17.9671 81.6329 18.5399 81.6141 19.099 81.5012V81.5012Z" fill="#6BDDDD"/>
<path d="M28.9925 81.4733C28.6995 81.4733 28.4781 81.5685 28.3345 81.7559C28.2201 81.9054 28.1238 82.0973 28.0511 82.3191C27.9079 82.711 27.6953 83.01 27.4196 83.2078C27.1454 83.4045 26.8011 83.5041 26.3963 83.5041C26.022 83.5041 25.6932 83.4156 25.4186 83.2406C25.1467 83.0675 24.9315 82.7978 24.7798 82.439C24.6219 82.0652 24.5418 81.5843 24.5418 81.0097C24.5418 80.1554 24.7204 79.4937 25.0729 79.0423C25.4164 78.6021 25.867 78.3876 26.4498 78.3876C26.8103 78.3876 27.1144 78.4714 27.3539 78.636C27.6016 78.8065 27.8226 79.0719 28.0105 79.425C28.1474 79.6834 28.2725 79.8646 28.3932 79.9786C28.5371 80.1148 28.7423 80.1842 29.0032 80.1842C29.249 80.1842 29.4605 80.0897 29.6321 79.9041C29.7989 79.7232 29.8838 79.5106 29.8838 79.2719C29.8838 78.8954 29.7369 78.4976 29.4479 78.0891C29.1649 77.6894 28.7556 77.351 28.2312 77.0834C27.7075 76.8159 27.1048 76.6804 26.4391 76.6804C25.894 76.6804 25.3722 76.779 24.8891 76.9738C24.4034 77.1698 23.9735 77.4591 23.6122 77.8337C23.2505 78.2083 22.9696 78.6641 22.7766 79.1888C22.5851 79.7088 22.488 80.3034 22.488 80.9562C22.488 81.3577 22.5264 81.7427 22.6024 82.101C22.6785 82.4612 22.7947 82.8055 22.9475 83.1247C23.1007 83.444 23.2885 83.737 23.5073 83.9972C23.7528 84.2843 24.027 84.5197 24.3222 84.6969C24.6163 84.8737 24.9477 85.0054 25.3068 85.0881C25.6596 85.1696 26.0549 85.211 26.4822 85.211C27.0535 85.211 27.5639 85.1172 27.999 84.932C28.4345 84.7463 28.7988 84.5002 29.0818 84.1998C29.3619 83.9023 29.5712 83.5931 29.7037 83.2805C29.8376 82.9646 29.9052 82.6634 29.9052 82.3852C29.9052 82.1276 29.814 81.9087 29.6347 81.7338C29.4564 81.5611 29.2401 81.4733 28.9925 81.4733V81.4733Z" fill="#6BDDDD"/>
<path d="M37.2462 80.6801C37.8286 80.2793 38.1234 79.7161 38.1234 79.0005C38.1234 78.7481 38.0814 78.5045 37.9976 78.2757C37.9145 78.048 37.792 77.8369 37.6333 77.6483C37.4754 77.4608 37.2912 77.304 37.0875 77.1826C36.8473 77.0368 36.5731 76.9375 36.2727 76.8866C35.9877 76.8386 35.6486 76.8143 35.2651 76.8143H32.7331C32.3353 76.8143 32.0352 76.9124 31.8411 77.1066C31.6474 77.3007 31.5488 77.6044 31.5488 78.0093V83.8838C31.5488 84.2798 31.6444 84.5802 31.8323 84.7772C32.0231 84.9773 32.3264 85.0787 32.7331 85.0787H35.1212C35.5416 85.0787 35.9154 85.0577 36.2328 85.0156C36.5605 84.9725 36.8557 84.8964 37.1144 84.7879C37.5344 84.6038 37.8725 84.3141 38.1197 83.9277C38.3663 83.5424 38.491 83.1043 38.491 82.626C38.491 81.727 38.0725 81.0746 37.2462 80.6801V80.6801ZM36.0165 79.6024C35.9298 79.7626 35.8088 79.8678 35.6475 79.9239C35.4571 79.9899 35.1744 80.0231 34.8068 80.0231H33.5815V78.4517H34.6418C35.1821 78.4517 35.5825 78.51 35.8324 78.6256C35.9571 78.6835 36.1232 78.8064 36.1232 79.2079C36.1228 79.353 36.0896 79.4795 36.0165 79.6024ZM33.5812 81.6078H35.0039C35.5083 81.6078 35.8855 81.6853 36.1247 81.8389C36.335 81.9736 36.4369 82.1924 36.4369 82.508C36.4369 82.908 36.2941 83.4402 35.057 83.4402H33.5812V81.6078Z" fill="#6BDDDD"/>
<path d="M45.9347 77.5789C45.5967 77.2833 45.2143 77.0785 44.7981 76.9707C44.3976 76.867 43.9142 76.8143 43.3614 76.8143H41.2984C40.8972 76.8143 40.5942 76.9135 40.3986 77.1091C40.203 77.3047 40.1038 77.6077 40.1038 78.0089V83.7395C40.1038 84.0151 40.1281 84.2366 40.1787 84.4159C40.2388 84.6303 40.3691 84.799 40.5651 84.916C40.7481 85.0252 40.9983 85.0784 41.3308 85.0784H43.3938C43.7632 85.0784 44.1009 85.054 44.3973 85.0064C44.7017 84.9573 44.9911 84.8706 45.2572 84.7492C45.5255 84.6267 45.776 84.4617 46.0037 84.2569C46.2872 83.996 46.523 83.6959 46.7042 83.3652C46.8843 83.0368 47.0194 82.6633 47.1057 82.2559C47.1902 81.8555 47.233 81.4078 47.233 80.9247C47.2319 79.4419 46.795 78.3152 45.9347 77.5789V77.5789ZM42.1357 78.5163H42.9558C43.4145 78.5163 43.8083 78.5658 44.1264 78.6639C44.4161 78.7529 44.6563 78.9603 44.8612 79.2987C45.0715 79.6452 45.1778 80.1888 45.1778 80.9148C45.1778 81.9348 44.9372 82.6556 44.46 83.0597C44.3644 83.1434 44.2493 83.2099 44.1172 83.2568C43.9751 83.3073 43.8374 83.339 43.7075 83.3516C43.5662 83.3649 43.365 83.3719 43.1104 83.3719H42.1357V78.5163Z" fill="#6BDDDD"/>
<path d="M52.8847 90.0477H4.73566C4.32823 90.0477 3.99756 89.7171 3.99756 89.3096V74.4706C3.99756 68.0439 9.22587 62.8153 15.6525 62.8153H18.3587V59.4418C18.3587 59.1853 18.4919 58.9473 18.7104 58.8129C18.9289 58.679 19.2013 58.6668 19.4301 58.7834C22.3515 60.2614 25.5076 61.0106 28.8102 61.0106C32.1113 61.0106 35.2656 60.2622 38.1851 58.786C38.4136 58.6705 38.6863 58.6819 38.9048 58.8159C39.1232 58.9502 39.2561 59.1886 39.2561 59.4447V62.8153H41.9679C48.3945 62.8153 53.6228 68.0439 53.6228 74.4706V89.3096C53.6228 89.7171 53.2925 90.0477 52.8847 90.0477ZM5.47375 88.5715H52.147V74.4706C52.147 68.8577 47.5807 64.2915 41.9682 64.2915H38.5084C38.3073 64.2915 38.115 64.2092 37.9759 64.0645C37.8367 63.9191 37.7625 63.7235 37.771 63.5227C37.7762 63.3987 37.7806 63.2744 37.7806 63.1489V60.6102C34.957 61.8561 31.9452 62.4868 28.8105 62.4868C25.6736 62.4868 22.66 61.855 19.8353 60.6076V63.1489C19.8353 63.2747 19.8401 63.3995 19.8449 63.5235C19.853 63.7246 19.7788 63.9198 19.6397 64.0649C19.5006 64.2099 19.3083 64.2915 19.1075 64.2915H15.6528C10.0404 64.2915 5.47412 68.8577 5.47412 74.4706V88.5715H5.47375Z" fill="#42A4FA"/>
<path d="M65.1013 74.9436V79.7849C65.1013 80.2215 65.4061 80.5867 65.8144 80.6794C65.9337 80.7066 66.0186 80.8117 66.0186 80.9341V82.8191C66.0186 83.6127 66.6396 84.2937 67.433 84.3082C68.2414 84.323 68.9015 83.6721 68.9015 82.8669V80.9341C68.9015 80.8117 68.9864 80.7066 69.1057 80.6794C69.514 80.5867 69.8188 80.2215 69.8188 79.7849V74.9436H65.1013Z" fill="#A4C9FF"/>
<path d="M59.1057 67.8403L57.5448 66.3898H55.1494H52.5828H50.1874L48.6265 67.8403C47.9333 68.4845 47.5352 69.4179 47.5352 70.3997V78.1197V82.1475V84.7979V88.5378C47.5352 89.2051 48.0762 89.7462 48.7435 89.7462H58.9885C59.6558 89.7462 60.1969 89.2051 60.1969 88.5378V84.7977V82.1473V78.1196V70.3996C60.197 69.4179 59.7989 68.4845 59.1057 67.8403V67.8403Z" fill="#6BDDDD"/>
<path d="M47.5352 72.9327H60.1969V82.5494H47.5352V72.9327Z" fill="#FFEA92"/>
<path d="M50.1089 64.3403H57.6228V66.3896H50.1089V64.3403Z" fill="#6BDDDD"/>
<path d="M49.6638 64.3405H58.0684C58.4746 64.3405 58.8037 64.0114 58.8037 63.6052V61.2767C58.8037 60.8705 58.4746 60.5414 58.0684 60.5414H49.6638C49.2576 60.5414 48.9285 60.8705 48.9285 61.2767V63.605C48.9285 64.0112 49.2576 64.3405 49.6638 64.3405Z" fill="#42A4FA"/>
<path d="M56.1123 60.5411H51.6196V55.741C51.6196 54.5004 52.6253 53.4946 53.866 53.4946C55.1067 53.4946 56.1123 54.5004 56.1123 55.741V60.5411Z" fill="#42A4FA"/>
<path d="M57.6232 66.6916H50.1092C49.9425 66.6916 49.8071 66.5563 49.8071 66.3895V64.3404C49.8071 64.1737 49.9425 64.0383 50.1092 64.0383H57.6232C57.7899 64.0383 57.9252 64.1737 57.9252 64.3404V66.3895C57.9252 66.5564 57.7901 66.6916 57.6232 66.6916ZM50.4113 66.0874H57.3211V64.6425H50.4113V66.0874Z" fill="#42A4FA"/>
<path d="M58.0685 64.6425H49.6638C49.0918 64.6425 48.6265 64.1771 48.6265 63.6051V61.2768C48.6265 60.7048 49.0918 60.2394 49.6638 60.2394H58.0685C58.6405 60.2394 59.1059 60.7048 59.1059 61.2768V63.6051C59.1059 64.1771 58.6405 64.6425 58.0685 64.6425ZM49.6638 60.8434C49.425 60.8434 49.2306 61.0378 49.2306 61.2766V63.605C49.2306 63.8438 49.425 64.0382 49.6638 64.0382H58.0685C58.3073 64.0382 58.5017 63.8438 58.5017 63.605V61.2768C58.5017 61.038 58.3073 60.8436 58.0685 60.8436H49.6638V60.8434Z" fill="#42A4FA"/>
<path d="M56.1123 60.8434H51.6195C51.4527 60.8434 51.3174 60.708 51.3174 60.5413V55.7412C51.3174 54.3359 52.4608 53.1927 53.866 53.1927C55.2712 53.1927 56.4144 54.3359 56.4144 55.7412V60.5413C56.4144 60.7082 56.2792 60.8434 56.1123 60.8434ZM51.9216 60.2392H55.8102V55.7412C55.8102 54.6691 54.9381 53.7969 53.866 53.7969C52.7937 53.7969 51.9216 54.6691 51.9216 55.7412V60.2392Z" fill="#42A4FA"/>
<path d="M63.2578 64.3405H71.6624C72.0686 64.3405 72.3977 64.0114 72.3977 63.6052V61.2767C72.3977 60.8705 72.0686 60.5414 71.6624 60.5414H63.2578C62.8516 60.5414 62.5225 60.8705 62.5225 61.2767V63.605C62.5225 64.0112 62.8516 64.3405 63.2578 64.3405Z" fill="#42A4FA"/>
<path d="M69.7063 60.5411H65.2136V55.741C65.2136 54.5004 66.2193 53.4946 67.46 53.4946C68.7007 53.4946 69.7063 54.5004 69.7063 55.741V60.5411Z" fill="#42A4FA"/>
<path d="M71.6625 64.6426H63.2578C62.6858 64.6426 62.2205 64.1773 62.2205 63.6053V61.2769C62.2205 60.7049 62.6858 60.2395 63.2578 60.2395H71.6625C72.2345 60.2395 72.6999 60.7049 72.6999 61.2769V63.6053C72.6999 64.1773 72.2345 64.6426 71.6625 64.6426ZM63.2578 60.8435C63.019 60.8435 62.8246 61.0379 62.8246 61.2767V63.6051C62.8246 63.8439 63.019 64.0383 63.2578 64.0383H71.6625C71.9013 64.0383 72.0957 63.8439 72.0957 63.6051V61.2769C72.0957 61.0381 71.9013 60.8437 71.6625 60.8437H63.2578V60.8435Z" fill="#42A4FA"/>
<path d="M69.7066 60.8434H65.2137C65.047 60.8434 64.9116 60.708 64.9116 60.5413V55.7412C64.9116 54.3359 66.0549 53.1927 67.4602 53.1927C68.8656 53.1927 70.0087 54.3359 70.0087 55.7412V60.5413C70.0087 60.7082 69.8735 60.8434 69.7066 60.8434V60.8434ZM65.5158 60.2392H69.4045V55.7412C69.4045 54.6691 68.5323 53.7969 67.4602 53.7969C66.3879 53.7969 65.5158 54.6691 65.5158 55.7412V60.2392Z" fill="#42A4FA"/>
<path d="M58.9884 90.0479H48.7434C47.9105 90.0479 47.2329 89.3703 47.2329 88.5374V70.3992C47.2329 69.3334 47.6658 68.3199 48.4206 67.6186L49.9815 66.1681C50.0374 66.1161 50.1108 66.0873 50.1871 66.0873H57.5445C57.6208 66.0873 57.6942 66.1161 57.7501 66.1681L59.311 67.6186C60.0658 68.3199 60.4987 69.3334 60.4987 70.3992V88.5374C60.4988 89.3703 59.8212 90.0479 58.9884 90.0479V90.0479ZM50.3059 66.6915L48.8319 68.061C48.1996 68.6486 47.8371 69.5008 47.8371 70.399V88.5374C47.8371 89.0372 48.2436 89.4437 48.7434 89.4437H58.9884C59.4882 89.4437 59.8946 89.0372 59.8946 88.5374V70.3992C59.8946 69.5008 59.5321 68.6486 58.8999 68.0611L57.4258 66.6916H50.3059V66.6915Z" fill="#42A4FA"/>
<path d="M65.9984 87.0912C65.8131 87.3565 65.7032 87.6751 65.6982 88.0181C65.685 88.9226 66.4306 89.6958 67.3653 89.7432C68.3815 89.7947 69.2222 89.0135 69.2222 88.0426C69.2222 87.6902 69.1114 87.3627 68.9218 87.0912L68.9213 87.0906L67.6071 85.177C67.5375 85.0755 67.3832 85.0755 67.3135 85.177L65.9992 87.0904C65.9991 87.0906 65.9991 87.0907 65.9989 87.0907L65.9984 87.0912Z" fill="#A4C9FF"/>
<path d="M67.4856 88.7612C67.4845 88.5955 67.3732 88.4591 67.2282 88.4331C67.228 88.4331 67.228 88.4331 67.2279 88.4331C67.2268 88.433 67.2258 88.4328 67.2247 88.4327C67.0001 88.4054 66.8312 88.3315 66.8117 88.3227C66.7478 88.291 66.7057 88.2604 66.6834 88.2421C66.539 88.1182 66.4276 87.9128 66.4705 87.5722C66.4775 87.5171 66.4427 87.4631 66.3905 87.4556C66.34 87.4482 66.2943 87.4831 66.2841 87.5338C66.2467 87.7219 66.1855 88.2116 66.4476 88.6135C66.7096 89.0154 66.5989 88.8656 66.8723 89.0076V89.0077C66.8723 89.0077 67.0978 89.1497 67.2555 89.089L67.2554 89.0888C67.27 89.0848 67.2847 89.0796 67.2987 89.073C67.3233 89.0612 67.3484 89.0452 67.3727 89.0233C67.3756 89.0207 67.3785 89.0178 67.3813 89.0151C67.3844 89.0123 67.3872 89.0094 67.3901 89.0064C67.3955 89.0008 67.4008 88.9949 67.4058 88.9887C67.4081 88.986 67.4102 88.9834 67.4124 88.9807C67.4149 88.9775 67.4173 88.9745 67.4197 88.9712C67.4208 88.9698 67.4217 88.9686 67.4227 88.9672L67.4224 88.9671C67.4623 88.9099 67.486 88.8386 67.4856 88.7612V88.7612Z" fill="#E0EBFC"/>
<path d="M55.916 79.2783C56.5249 79.1744 57.0966 78.9039 57.5807 78.4887C57.6244 78.4512 57.6108 78.3805 57.5565 78.3612C56.9555 78.1484 56.3249 78.1021 55.7197 78.2246C55.4141 78.2767 55.1179 78.371 54.8374 78.5042C55.1948 78.3151 55.5203 78.0721 55.8023 77.7819C56.2767 77.3208 56.6261 76.7436 56.8181 76.0997C56.8347 76.0438 56.7824 75.9916 56.7265 76.0082C56.0826 76.2003 55.5055 76.5495 55.0443 77.024C54.8114 77.2504 54.6089 77.5047 54.4402 77.7812C54.5815 77.3107 54.65 76.8241 54.6426 76.3347C54.6558 75.4641 54.4288 74.6021 53.9784 73.8241C53.9379 73.7541 53.8364 73.7541 53.7959 73.8241C53.3455 74.6021 53.1185 75.4641 53.1318 76.3347C53.1241 76.8337 53.1958 77.3297 53.343 77.8088C53.1709 77.5217 52.9626 77.2578 52.722 77.024C52.2609 76.5495 51.6837 76.2002 51.0398 76.0082C50.9839 75.9916 50.9317 76.0438 50.9483 76.0997C51.1404 76.7436 51.4896 77.3208 51.9641 77.7819C52.2461 78.0721 52.5714 78.315 52.9289 78.5042C52.6484 78.3708 52.3522 78.2767 52.0467 78.2246C51.4414 78.1021 50.8108 78.1484 50.2098 78.3612C50.1556 78.3804 50.142 78.4512 50.1856 78.4887C50.6696 78.9039 51.2413 79.1744 51.8503 79.2783C52.2137 79.3519 52.5861 79.3641 52.9558 79.3165C52.7607 79.3421 52.5694 79.39 52.3855 79.46C51.9505 79.6109 51.5633 79.8795 51.2582 80.244C51.2306 80.2769 51.2489 80.327 51.2911 80.3346C51.7591 80.4177 52.2285 80.3746 52.6586 80.2106C53.0153 80.0869 53.3398 79.8837 53.6133 79.6137L53.7428 79.5215L53.5709 81.5508C53.5636 81.6363 53.6312 81.7097 53.7168 81.7097H53.887H54.0573C54.143 81.7097 54.2104 81.6363 54.2033 81.5508L54.0319 79.5266L54.1488 79.6137H54.1489C54.4225 79.8837 54.7469 80.0867 55.1037 80.2104C55.5339 80.3745 56.0032 80.4175 56.4711 80.3344C56.5136 80.3269 56.5317 80.2767 56.504 80.2438C56.1989 79.8793 55.8117 79.6106 55.3768 79.4599C55.1913 79.3892 54.9984 79.3413 54.8016 79.3161V79.3156C55.1744 79.3646 55.5497 79.3523 55.916 79.2783V79.2783Z" fill="#6BDDDD"/>
<path d="M65.1013 64.3403V79.7848C65.1013 80.2212 65.4061 80.5864 65.8144 80.6793C65.9337 80.7065 66.0186 80.8116 66.0186 80.9339V82.819C66.0186 83.6126 66.6396 84.2935 67.4332 84.308C68.2416 84.3228 68.9016 83.672 68.9016 82.8667V80.9339C68.9016 80.8116 68.9865 80.7063 69.1058 80.6793C69.5141 80.5864 69.8189 80.2213 69.8189 79.7848V64.3403H65.1013Z" fill="#E0EBFC"/>
<path d="M67.4604 84.6103C67.4496 84.6103 67.4385 84.6102 67.4277 84.61C66.4841 84.5928 65.7165 83.7893 65.7165 82.8191V80.9664C65.1748 80.8286 64.7993 80.3472 64.7993 79.7849V64.3404C64.7993 64.1737 64.9347 64.0383 65.1014 64.0383H69.8189C69.9856 64.0383 70.121 64.1737 70.121 64.3404V79.7849C70.121 80.3474 69.7455 80.8288 69.2037 80.9664V82.8668C69.2037 83.3385 69.0182 83.7803 68.6817 84.1108C68.3528 84.4336 67.9204 84.6103 67.4604 84.6103V84.6103ZM65.4035 64.6425V79.7849C65.4035 80.0694 65.6045 80.3218 65.8814 80.3848C66.14 80.4437 66.3207 80.6696 66.3207 80.934V82.8191C66.3207 83.4624 66.8221 83.9947 67.4385 84.0059C67.7544 84.0152 68.0383 83.8956 68.2583 83.6798C68.4783 83.4638 68.5995 83.1751 68.5995 82.8668V80.9339C68.5995 80.6694 68.78 80.4436 69.0386 80.3847C69.3157 80.3217 69.5168 80.0693 69.5168 79.7847V64.6425H65.4035ZM65.7474 80.9739H65.7489H65.7474Z" fill="#42A4FA"/>
</svg>
