<svg width="101" height="90" viewBox="0 0 101 90" fill="none" xmlns="http://www.w3.org/2000/svg">
<path d="M92.3088 29.7248L79.091 9.12273C78.7863 8.64836 78.2615 8.36108 77.6973 8.36108H67.9428H67.187H33.0405H22.5303C21.9665 8.36108 21.4412 8.64794 21.1365 9.12273L7.9187 29.7248H92.3088Z" fill="#42A4FA"/>
<path d="M92.3086 30.5527H7.91849C7.61591 30.5527 7.33733 30.3875 7.19204 30.1218C7.04674 29.856 7.05833 29.5323 7.22142 29.2777L20.4397 8.6757C20.8983 7.96042 21.6798 7.53323 22.53 7.53323H77.697C78.5469 7.53323 79.328 7.96 79.7874 8.67528L93.0057 29.2777C93.1692 29.5323 93.1803 29.856 93.0351 30.1218C92.8898 30.3875 92.6112 30.5527 92.3086 30.5527ZM9.43309 28.8969H90.794L78.3941 9.5698C78.2414 9.33137 77.9806 9.18898 77.697 9.18898H22.53C22.2465 9.18898 21.9865 9.33137 21.8334 9.5698L9.43309 28.8969Z" fill="#42A4FA"/>
<path d="M10.7979 43.7313H90.2025V82.833H10.7979V43.7313Z" fill="#42A4FA"/>
<path d="M10.7979 43.7313H90.2025V71.1364H10.7979V43.7313Z" fill="#E0EBFC"/>
<path d="M95.1926 43.7312H6.22313C5.30874 43.7312 4.56738 42.9898 4.56738 42.0755V31.3806C4.56738 30.4662 5.30874 29.7248 6.22313 29.7248H95.1926C96.107 29.7248 96.8484 30.4662 96.8484 31.3806V42.0755C96.8484 42.9898 96.1074 43.7312 95.1926 43.7312Z" fill="#F9A7A7"/>
<path d="M95.193 44.5591H6.22312C4.85341 44.5591 3.7395 43.4452 3.7395 42.0754V31.3806C3.7395 30.0108 4.85341 28.8969 6.22312 28.8969H95.193C96.5627 28.8969 97.6767 30.0108 97.6767 31.3806V42.0754C97.6767 43.4452 96.5623 44.5591 95.193 44.5591ZM6.22312 30.5527C5.76655 30.5527 5.39525 30.924 5.39525 31.3806V42.0754C5.39525 42.532 5.76655 42.9033 6.22312 42.9033H95.193C95.6496 42.9033 96.0209 42.532 96.0209 42.0754V31.3806C96.0209 30.924 95.6496 30.5527 95.193 30.5527H6.22312Z" fill="#42A4FA"/>
<path d="M97.2842 88.6094H3.71633C2.12102 88.6094 0.827881 87.3163 0.827881 85.721C0.827881 84.1257 2.12102 82.8325 3.71633 82.8325H97.2847C98.88 82.8325 100.173 84.1257 100.173 85.721C100.173 87.3163 98.8796 88.6094 97.2842 88.6094V88.6094Z" fill="#6BDDDD"/>
<path d="M90.2025 71.9638H10.7978C10.3409 71.9638 9.96997 71.5929 9.96997 71.1359V43.7313C9.96997 43.2743 10.3409 42.9034 10.7978 42.9034H90.2025C90.6595 42.9034 91.0304 43.2743 91.0304 43.7313V71.1359C91.0304 71.5933 90.6599 71.9638 90.2025 71.9638ZM11.6257 70.3081H89.3746V44.5591H11.6257V70.3081Z" fill="#42A4FA"/>
<path d="M37.8313 43.7313H63.5844V82.833H37.8313V43.7313Z" fill="#E0EBFC"/>
<path d="M43.4021 72.7254C44.5456 72.7254 45.4726 71.7984 45.4726 70.6549C45.4726 69.5113 44.5456 68.5844 43.4021 68.5844C42.2585 68.5844 41.3315 69.5113 41.3315 70.6549C41.3315 71.7984 42.2585 72.7254 43.4021 72.7254Z" fill="#42A4FA"/>
<path d="M63.5844 83.6604H37.8318C37.3748 83.6604 37.0039 83.2895 37.0039 82.8325V43.7313C37.0039 43.2743 37.3748 42.9034 37.8318 42.9034H63.5849C64.0418 42.9034 64.4127 43.2743 64.4127 43.7313V82.8325C64.4123 83.2899 64.0418 83.6604 63.5844 83.6604ZM38.6597 82.0047H62.757V44.5591H38.6597V82.0047Z" fill="#42A4FA"/>
<path d="M90.2025 83.6604H10.7978C10.3409 83.6604 9.96997 83.2895 9.96997 82.8325V43.7313C9.96997 43.2743 10.3409 42.9034 10.7978 42.9034H90.2025C90.6595 42.9034 91.0304 43.2743 91.0304 43.7313V82.8325C91.0304 83.2899 90.6599 83.6604 90.2025 83.6604ZM11.6257 82.0047H89.3746V44.5591H11.6257V82.0047Z" fill="#42A4FA"/>
<path d="M97.2842 89.4369H3.71632C1.66734 89.4369 0 87.77 0 85.7206C0 83.6712 1.66692 82.0043 3.71632 82.0043H97.2847C99.3336 82.0043 101.001 83.6712 101.001 85.7206C101.001 87.77 99.3336 89.4369 97.2842 89.4369ZM3.71632 83.6604C2.58048 83.6604 1.65575 84.5848 1.65575 85.721C1.65575 86.8573 2.58007 87.7816 3.71632 87.7816H97.2847C98.4205 87.7816 99.3452 86.8573 99.3452 85.721C99.3452 84.5848 98.4209 83.6604 97.2847 83.6604H3.71632Z" fill="#42A4FA"/>
<path d="M16.7202 62.5221C16.4553 62.5221 16.1908 62.4211 15.9884 62.2191C15.584 61.8147 15.584 61.1599 15.9884 60.7559L26.4258 50.3184C26.8302 49.914 27.485 49.914 27.8891 50.3184C28.2931 50.7229 28.2935 51.3777 27.8891 51.7817L17.4516 62.2187C17.2496 62.4211 16.9847 62.5221 16.7202 62.5221V62.5221Z" fill="#A4C9FF"/>
<path d="M23.3433 62.5216C23.0783 62.5216 22.8138 62.4206 22.6114 62.2186C22.207 61.8142 22.207 61.1594 22.6114 60.7554L33.0488 50.318C33.4532 49.9135 34.1081 49.9135 34.5121 50.318C34.9161 50.7224 34.9165 51.3772 34.5121 51.7812L24.0747 62.2182C23.8727 62.4206 23.6078 62.5216 23.3433 62.5216V62.5216Z" fill="#A4C9FF"/>
<path d="M68.8762 62.5216C68.6113 62.5216 68.3468 62.4206 68.1444 62.2186C67.74 61.8142 67.74 61.1594 68.1444 60.7554L78.5818 50.318C78.9862 49.9135 79.6411 49.9135 80.0451 50.318C80.4491 50.7224 80.4495 51.3772 80.0451 51.7812L69.6076 62.2186C69.4056 62.4206 69.1407 62.5216 68.8762 62.5216Z" fill="#A4C9FF"/>
<path d="M75.4993 62.5216C75.2343 62.5216 74.9698 62.4206 74.7674 62.2186C74.363 61.8142 74.363 61.1594 74.7674 60.7554L85.2048 50.318C85.6093 49.9135 86.2641 49.9135 86.6681 50.318C87.0721 50.7224 87.0725 51.3772 86.6681 51.7812L76.2307 62.2186C76.0287 62.4206 75.7638 62.5216 75.4993 62.5216Z" fill="#A4C9FF"/>
<path d="M50.5004 39.2872C39.8969 39.2872 31.2705 30.6607 31.2705 20.0577C31.2705 9.45432 39.8969 0.827881 50.5004 0.827881C61.1038 0.827881 69.7302 9.45432 69.7302 20.0577C69.7302 30.6607 61.1038 39.2872 50.5004 39.2872Z" fill="#FFEA92"/>
<path d="M50.5004 35.4239C58.9871 35.4239 65.8669 28.544 65.8669 20.0573C65.8669 11.5706 58.9871 4.69073 50.5004 4.69073C42.0136 4.69073 35.1338 11.5706 35.1338 20.0573C35.1338 28.544 42.0136 35.4239 50.5004 35.4239Z" fill="#4671C6"/>
<path d="M55.2381 18.4889C56.6591 18.2463 57.9928 17.6151 59.1225 16.646C59.2243 16.5587 59.1924 16.3935 59.0658 16.3488C57.6633 15.8525 56.1918 15.7445 54.7794 16.0305C54.0662 16.1522 53.375 16.372 52.7205 16.6829C53.5546 16.2416 54.3142 15.6745 54.9719 14.9973C56.0792 13.9215 56.8942 12.5746 57.3425 11.072C57.3815 10.9416 57.2593 10.8195 57.129 10.8584C55.6264 11.3067 54.2794 12.1217 53.2036 13.229C52.6601 13.7572 52.1874 14.3508 51.7937 14.9961C52.1236 13.8983 52.2834 12.7629 52.266 11.6208C52.2971 9.58924 51.7672 7.57792 50.7162 5.76239C50.6219 5.5993 50.3851 5.5993 50.2907 5.76239C49.2397 7.57792 48.7099 9.58924 48.7409 11.6208C48.7231 12.7852 48.8904 13.9426 49.2335 15.0607C48.832 14.3905 48.346 13.775 47.7843 13.229C46.7085 12.1217 45.3616 11.3067 43.859 10.8584C43.7286 10.8195 43.6065 10.9416 43.6454 11.072C44.0937 12.5746 44.9087 13.9215 46.016 14.9973C46.6737 15.6741 47.4333 16.2412 48.2674 16.6829C47.613 16.3716 46.9217 16.1522 46.2085 16.0305C44.7961 15.7449 43.3246 15.8525 41.9222 16.3488C41.7955 16.3935 41.7636 16.5587 41.8654 16.646C42.9951 17.6151 44.3288 18.2463 45.7498 18.4889C46.5976 18.6602 47.4668 18.6892 48.3295 18.5779C47.8742 18.6375 47.4279 18.7488 46.9987 18.9128C45.9837 19.2646 45.0801 19.8917 44.3681 20.7419C44.3035 20.8189 44.3462 20.9361 44.4451 20.9535C45.5371 21.1472 46.6323 21.047 47.6361 20.6641C48.4686 20.3756 49.2257 19.9016 49.8639 19.2712L50.1661 19.0564L49.765 23.7914C49.748 23.9909 49.9053 24.1623 50.1057 24.1623H50.5031H50.9004C51.1008 24.1623 51.2581 23.9909 51.2411 23.7914L50.8413 19.068L51.114 19.2712H51.1144C51.7527 19.9012 52.5098 20.3752 53.3423 20.6641C54.3461 21.047 55.4413 21.1476 56.5333 20.9535C56.6322 20.9361 56.6749 20.8189 56.6103 20.7419C55.8983 19.8917 54.9947 19.2646 53.9797 18.9128C53.5467 18.7476 53.0968 18.6362 52.6377 18.577V18.5758C53.5074 18.6905 54.3833 18.6619 55.2381 18.4889V18.4889Z" fill="#6BDDDD"/>
<path d="M46.4326 26.7934C46.2028 26.7934 46.0294 26.8679 45.9164 27.0148C45.8266 27.132 45.7512 27.2826 45.6941 27.4565C45.5819 27.7636 45.4151 27.9983 45.199 28.1536C44.9842 28.308 44.7139 28.3862 44.3964 28.3862C44.1029 28.3862 43.845 28.3167 43.6298 28.1796C43.4162 28.0439 43.2477 27.8323 43.1289 27.5509C43.0048 27.2578 42.9422 26.8807 42.9422 26.4299C42.9422 25.7602 43.0822 25.2411 43.3587 24.8868C43.6281 24.5415 43.9812 24.3735 44.4382 24.3735C44.7209 24.3735 44.9594 24.4389 45.1473 24.5685C45.3414 24.7022 45.5149 24.9104 45.6622 25.1873C45.7694 25.3901 45.868 25.5321 45.9623 25.6215C46.0753 25.7283 46.2359 25.7825 46.4408 25.7825C46.6333 25.7825 46.7993 25.7084 46.9343 25.5627C47.0651 25.4212 47.1317 25.2543 47.1317 25.0672C47.1317 24.7721 47.0166 24.46 46.7898 24.1396C46.5679 23.8263 46.2467 23.5609 45.8357 23.3511C45.425 23.1412 44.9523 23.0348 44.4303 23.0348C44.0028 23.0348 43.5938 23.1122 43.2146 23.265C42.8338 23.4185 42.4964 23.6458 42.2133 23.9393C41.9298 24.2332 41.7091 24.5904 41.558 25.0018C41.4078 25.4096 41.332 25.8761 41.332 26.3881C41.332 26.7031 41.3623 27.0049 41.4214 27.2859C41.481 27.5687 41.5721 27.8386 41.6917 28.0886C41.8118 28.339 41.9591 28.5687 42.1305 28.7728C42.323 28.998 42.5378 29.1826 42.7696 29.3217C43.0006 29.4604 43.2602 29.5634 43.5416 29.6284C43.8181 29.6926 44.1282 29.7249 44.4635 29.7249C44.9118 29.7249 45.3116 29.6512 45.6531 29.5059C45.9946 29.3606 46.2802 29.1673 46.5021 28.9318C46.7219 28.6987 46.8858 28.4561 46.9897 28.2107C47.0944 27.9627 47.1478 27.7268 47.1478 27.5086C47.1478 27.3066 47.0766 27.1349 46.9355 26.9978C46.7964 26.8621 46.6271 26.7934 46.4326 26.7934V26.7934Z" fill="#FFEA92"/>
<path d="M52.3716 26.2792C52.8286 25.9651 53.0596 25.5234 53.0596 24.9621C53.0596 24.7642 53.0264 24.573 52.961 24.3938C52.8961 24.2154 52.7996 24.0498 52.6754 23.9016C52.5517 23.7546 52.4072 23.6317 52.2474 23.5361C52.0591 23.4218 51.8442 23.3436 51.6083 23.3039C51.3848 23.2662 51.119 23.2472 50.8181 23.2472H48.8324C48.5203 23.2472 48.2852 23.3242 48.1329 23.4765C47.981 23.6288 47.9036 23.8668 47.9036 24.1843V28.7914C47.9036 29.1019 47.9785 29.3374 48.1258 29.4922C48.2757 29.6491 48.5133 29.7286 48.8324 29.7286H50.7055C51.035 29.7286 51.3285 29.712 51.5773 29.6789C51.8343 29.645 52.0657 29.5854 52.2689 29.5005C52.598 29.356 52.8634 29.1288 53.0575 28.8258C53.2508 28.5236 53.3485 28.18 53.3485 27.805C53.3477 27.1005 53.0198 26.5885 52.3716 26.2792ZM51.4071 25.4344C51.3392 25.5598 51.2444 25.6422 51.1174 25.6865C50.9684 25.7382 50.7465 25.7643 50.458 25.7643H49.4968V24.532H50.3284C50.7519 24.532 51.066 24.578 51.2618 24.6682C51.3599 24.7133 51.4899 24.8102 51.4899 25.1252C51.4903 25.2386 51.4642 25.338 51.4071 25.4344V25.4344ZM49.4972 27.0069H50.6128C51.0085 27.0069 51.3045 27.0678 51.4916 27.1883C51.6563 27.2938 51.7366 27.4656 51.7366 27.7131C51.7366 28.0269 51.6244 28.4441 50.6546 28.4441H49.4972V27.0069Z" fill="#FFEA92"/>
<path d="M58.6515 23.8469C58.3862 23.6151 58.0865 23.4545 57.7603 23.3701C57.4462 23.2885 57.067 23.2476 56.6336 23.2476H55.0155C54.7009 23.2476 54.4633 23.3254 54.3098 23.4789C54.1562 23.6325 54.0784 23.8701 54.0784 24.1847V28.6788C54.0784 28.8953 54.0974 29.0688 54.1371 29.2095C54.1843 29.378 54.2866 29.5096 54.4402 29.6015C54.5838 29.6872 54.78 29.729 55.0408 29.729H56.6589C56.9486 29.729 57.2131 29.7099 57.4457 29.6723C57.6846 29.6338 57.9114 29.5659 58.1201 29.4703C58.3303 29.3742 58.527 29.2447 58.7054 29.0845C58.9276 28.88 59.1123 28.6449 59.2547 28.3853C59.3958 28.1279 59.5018 27.8348 59.5692 27.5157C59.6355 27.2015 59.669 26.8505 59.669 26.4717C59.669 25.3081 59.3263 24.4248 58.6515 23.8469V23.8469ZM55.6724 24.5821H56.3157C56.6754 24.5821 56.9842 24.621 57.2338 24.6976C57.4611 24.7671 57.6494 24.9302 57.81 25.1951C57.9748 25.4667 58.0584 25.893 58.0584 26.4626C58.0584 27.2627 57.8696 27.8278 57.4954 28.1444C57.4205 28.2102 57.3303 28.262 57.2264 28.2988C57.115 28.3386 57.007 28.3634 56.9051 28.3729C56.7942 28.3833 56.6365 28.3887 56.437 28.3887H55.6724V24.5821Z" fill="#FFEA92"/>
<path d="M50.5003 40.115C39.4404 40.115 30.4426 31.1173 30.4426 20.0577C30.4426 8.99774 39.4404 0 50.5003 0C61.5603 0 70.5581 8.99774 70.5581 20.0577C70.5581 31.1169 61.5603 40.115 50.5003 40.115ZM50.5003 1.65575C40.3535 1.65575 32.0984 9.91089 32.0984 20.0577C32.0984 30.2045 40.3535 38.4593 50.5003 38.4593C60.6472 38.4593 68.9023 30.2045 68.9023 20.0577C68.9023 9.91089 60.6472 1.65575 50.5003 1.65575Z" fill="#42A4FA"/>
</svg>
