<svg width="86" height="91" fill="none" xmlns="http://www.w3.org/2000/svg"><path d="M50.422 20.483h-27.6a3.01 3.01 0 00-2.6 1.494L6.449 45.587a3.012 3.012 0 000 3.034l13.773 23.61a3.011 3.011 0 002.6 1.495h27.6a3.01 3.01 0 002.601-1.494l13.773-23.61a3.012 3.012 0 000-3.035l-13.773-23.61a3.011 3.011 0 00-2.601-1.494z" fill="#42A4FA"/><path d="M17.804 49.022v-1.76c1.205-.757 2.176-1.445 2.912-2.064.746-.63 1.29-1.216 1.632-1.76.341-.544.512-1.061.512-1.552 0-.405-.123-.741-.368-1.008-.235-.277-.587-.416-1.056-.416-.502 0-.896.187-1.184.56-.278.363-.422.896-.432 1.6l-2.352-.72c.021-.779.208-1.435.56-1.968.362-.544.853-.95 1.472-1.216.618-.277 1.322-.416 2.112-.416.928 0 1.685.17 2.272.512.586.33 1.018.757 1.296 1.28.277.512.416 1.045.416 1.6 0 1.024-.39 1.957-1.168 2.8-.779.832-1.883 1.659-3.312 2.48v.016c.266-.021.602-.037 1.008-.048.416-.01.79-.016 1.12-.016h2.48v2.096h-7.92zm13.147.16c-.917 0-1.717-.176-2.4-.528-.672-.363-1.237-.95-1.696-1.76l2.416-1.2c.117.427.304.768.56 1.024.267.256.661.384 1.184.384.49 0 .88-.128 1.168-.384.288-.267.432-.65.432-1.152 0-.97-.533-1.456-1.6-1.456-.736 0-1.301.208-1.696.624l-2.08-.384.672-5.888h6.656v2.128h-4.656l-.272 2.112-.048.256h.016c.213-.245.512-.432.896-.56.384-.128.81-.192 1.28-.192.693 0 1.285.139 1.776.416.501.277.88.656 1.136 1.136.267.48.4 1.03.4 1.648 0 .864-.192 1.579-.576 2.144-.384.555-.89.965-1.52 1.232s-1.312.4-2.048.4z" fill="#FFEA92"/><path d="M49.833 70.442H25.14a3.777 3.777 0 01-3.251-1.867L9.586 47.483a.753.753 0 111.3-.758L23.19 67.816a2.266 2.266 0 001.951 1.12h24.692a.753.753 0 110 1.506z" fill="#E0EBFC"/><path d="M45.513 38.421c0 1.411-.31 2.46-.93 3.147-.621.687-1.47 1.03-2.55 1.03-.664 0-1.26-.145-1.789-.437-.528-.292-.94-.748-1.235-1.369-.296-.62-.444-1.377-.444-2.271 0-.96.115-1.762.344-2.404.229-.643.6-1.13 1.114-1.463.513-.333 1.169-.499 1.966-.499.577 0 1.083.089 1.519.266a2.78 2.78 0 011.108.815c.303.365.528.81.676 1.335.147.524.221 1.141.221 1.85zm-2.072-.11c0-.968-.104-1.672-.31-2.111-.207-.44-.573-.66-1.097-.66-.355 0-.637.106-.848.316-.21.21-.355.521-.432.931-.078.41-.116.933-.116 1.568 0 .658.038 1.193.116 1.607.077.414.22.726.427.936.206.21.491.316.853.316.547 0 .918-.233 1.114-.698.195-.466.293-1.2.293-2.205zm9.463-2.693l-9.23 14.881c-.237.407-.503.61-.798.61a.84.84 0 01-.51-.194.605.605 0 01-.255-.505c0-.155.074-.343.222-.565l9.286-15.003c.162-.273.304-.478.426-.615s.298-.205.527-.205c.221 0 .4.065.537.194.137.13.205.301.205.515 0 .155-.136.45-.41.887zm3.956 10.815c0 1.41-.31 2.46-.93 3.147-.621.687-1.47 1.03-2.55 1.03-.672 0-1.272-.148-1.8-.443-.528-.296-.942-.75-1.241-1.363-.3-.613-.449-1.37-.449-2.272 0-1.44.275-2.524.826-3.252.55-.727 1.424-1.091 2.62-1.091.577 0 1.08.088 1.513.266a2.9 2.9 0 011.108.797c.306.355.534.797.681 1.325.148.528.222 1.147.222 1.856zm-2.072-.111c0-.953-.104-1.65-.31-2.089-.207-.44-.573-.659-1.097-.659-.37 0-.658.104-.865.31-.206.207-.353.512-.437.915-.085.402-.128.925-.128 1.568 0 .99.105 1.713.316 2.171.21.459.582.688 1.114.688.539 0 .908-.235 1.108-.704.2-.47.299-1.203.299-2.2z" fill="#FFEA92"/><path d="M50.422 74.478h-27.6a3.779 3.779 0 01-3.251-1.867L5.798 49.001a3.77 3.77 0 010-3.794l13.773-23.61a3.778 3.778 0 013.252-1.868h27.599c1.334 0 2.58.716 3.252 1.868l13.772 23.61a3.77 3.77 0 010 3.794L53.673 72.61a3.778 3.778 0 01-3.251 1.867zm-27.6-53.243c-.8 0-1.546.43-1.95 1.12L7.099 45.966a2.261 2.261 0 000 2.276l13.773 23.61a2.267 2.267 0 001.95 1.121h27.6c.8 0 1.547-.43 1.95-1.12l13.773-23.61a2.26 2.26 0 000-2.276l-13.772-23.61a2.267 2.267 0 00-1.951-1.121h-27.6z" fill="#42A4FA"/><path d="M20.35 72.422a1.528 1.528 0 00-.322.239L6.009 86.682a1.505 1.505 0 102.128 2.13L22.158 74.79a1.5 1.5 0 00.44-1.08 3 3 0 01-2.247-1.288zm46.888 14.26L53.216 72.661a1.503 1.503 0 00-.322-.239 3.003 3.003 0 01-2.246 1.289 1.5 1.5 0 00.44 1.08l14.02 14.02a1.5 1.5 0 002.13 0 1.506 1.506 0 000-2.129zm16.141-41.033l-15.693-.05h-.005c-.283 0-.545.082-.77.218a3.001 3.001 0 010 2.574c.224.136.484.218.765.22l15.693.05h.005a1.506 1.506 0 00.005-3.012zM20.125 22.142l.096-.166a3.006 3.006 0 012.067-1.44 1.495 1.495 0 00-.414-.792L3.324 1.194a1.505 1.505 0 10-2.13 2.13l18.55 18.55c.114.113.244.198.38.268z" fill="#FFEA92"/><path d="M7.072 90.005c-.604 0-1.17-.235-1.597-.661a2.243 2.243 0 01-.662-1.597c0-.604.235-1.17.662-1.598l14.021-14.02c.133-.134.29-.252.482-.362a.754.754 0 01.992.227 2.242 2.242 0 001.684.965c.39.03.692.352.696.743a2.24 2.24 0 01-.66 1.62L8.67 89.344a2.242 2.242 0 01-1.597.661zm13.204-16.527L6.539 87.214a.748.748 0 00-.22.533c0 .2.078.39.22.532a.77.77 0 001.064 0l14.008-14.007a3.722 3.722 0 01-1.335-.794zm45.898 16.527a2.243 2.243 0 01-1.598-.661L50.555 75.322a2.24 2.24 0 01-.66-1.62.753.753 0 01.696-.743 2.242 2.242 0 001.684-.965.753.753 0 01.992-.226c.19.108.348.226.482.36L67.77 86.15c.427.426.661.993.661 1.596 0 .604-.234 1.171-.661 1.598a2.242 2.242 0 01-1.597.661zm-14.54-15.733l14.007 14.007a.77.77 0 001.064 0 .749.749 0 00.221-.533.748.748 0 00-.22-.532L52.969 73.478c-.385.356-.84.626-1.335.794zm31.74-24.859l-15.7-.05a2.251 2.251 0 01-1.152-.327.753.753 0 01-.292-.968 2.25 2.25 0 000-1.93.753.753 0 01.293-.967 2.257 2.257 0 011.157-.326l15.7.05a2.26 2.26 0 012.252 2.266 2.262 2.262 0 01-2.258 2.252zm-15.497-1.556l15.494.05a.755.755 0 00.537-1.284.747.747 0 00-.532-.222l-15.499-.05a3.748 3.748 0 010 1.506zM20.124 22.895a.75.75 0 01-.343-.083 2.222 2.222 0 01-.57-.407L.662 3.855A2.243 2.243 0 010 2.26c0-.605.235-1.172.662-1.6A2.242 2.242 0 012.259 0c.603 0 1.17.235 1.597.662l18.55 18.55c.324.324.54.736.623 1.188a.752.752 0 01-.607.877 2.253 2.253 0 00-1.55 1.08l-.097.165a.752.752 0 01-.65.373zM2.26 1.505a.747.747 0 00-.532.22.747.747 0 00-.22.534c0 .2.077.39.22.532l18.245 18.245a3.75 3.75 0 011.206-.923L2.79 1.726a.747.747 0 00-.532-.22z" fill="#42A4FA"/></svg>