<svg width="102" height="90" fill="none" xmlns="http://www.w3.org/2000/svg"><path d="M77.78 43.916l1.486-22.704H16.728l1.486 22.704c.302 4.603.333 9.22.095 13.827l-1.327 25.635a4.651 4.651 0 004.645 4.892h52.739a4.651 4.651 0 004.645-4.891l-1.327-25.636a118.23 118.23 0 01.094-13.827z" fill="#A4C9FF"/><path d="M74.367 89h-52.74a5.332 5.332 0 01-3.901-1.676 5.332 5.332 0 01-1.472-3.983l1.327-25.636c.236-4.562.205-9.185-.094-13.741L16.002 21.26a.73.73 0 01.727-.778h62.536a.728.728 0 01.728.778l-1.486 22.704c-.298 4.556-.33 9.179-.094 13.741l1.328 25.636a5.333 5.333 0 01-1.472 3.983A5.33 5.33 0 0174.367 89zM17.508 21.942l1.435 21.927c.302 4.612.334 9.293.095 13.912l-1.327 25.635a3.885 3.885 0 001.073 2.903 3.886 3.886 0 002.844 1.222h52.739a3.885 3.885 0 002.844-1.222 3.885 3.885 0 001.072-2.903l-1.327-25.635c-.239-4.62-.207-9.3.096-13.913l1.434-21.926H17.509zM77.78 43.916h.003-.003z" fill="#42A4FA"/><path d="M79.266 21.212H16.729v-4.005a3.101 3.101 0 013.102-3.101h56.334a3.101 3.101 0 013.1 3.1v4.006z" fill="#F9CFCF"/><path d="M79.266 21.942H16.729a.73.73 0 01-.729-.73v-4.005a3.835 3.835 0 013.83-3.83h56.334a3.834 3.834 0 013.83 3.83v4.005a.73.73 0 01-.728.73zm-61.807-1.46h61.077v-3.275a2.374 2.374 0 00-2.371-2.371H19.83a2.374 2.374 0 00-2.371 2.371v3.276z" fill="#42A4FA"/><path d="M32.241 76.642a3.1 3.1 0 01-3.097-3.261l.779-15.037c.26-5.04.226-10.149-.104-15.187l-.459-7.012a3.101 3.101 0 013.095-3.304H63.54a3.1 3.1 0 013.094 3.304l-.459 7.012a130.315 130.315 0 00-.104 15.187l.779 15.037a3.1 3.1 0 01-3.097 3.261H32.241z" fill="#F9A7A7"/><path d="M56.366 57.234c2.385-.407 4.625-1.467 6.521-3.094a.294.294 0 00-.095-.5c-2.354-.833-4.825-1.014-7.196-.534a13.238 13.238 0 00-3.456 1.095 15.145 15.145 0 003.78-2.83 15.245 15.245 0 003.98-6.59.289.289 0 00-.359-.358 15.245 15.245 0 00-6.59 3.98 15.12 15.12 0 00-2.368 2.966 18.65 18.65 0 00.793-5.666c.052-3.411-.837-6.788-2.602-9.836a.413.413 0 00-.714 0c-1.765 3.048-2.654 6.425-2.602 9.836-.03 1.954.25 3.897.827 5.774a15.123 15.123 0 00-2.433-3.074 15.245 15.245 0 00-6.59-3.98.289.289 0 00-.359.358 15.245 15.245 0 003.98 6.59 15.143 15.143 0 003.78 2.83 13.222 13.222 0 00-3.456-1.095c-2.372-.48-4.842-.299-7.197.535a.294.294 0 00-.094.499c1.896 1.627 4.136 2.686 6.521 3.094a13.28 13.28 0 004.331.15 9.9 9.9 0 00-2.234.561 10.05 10.05 0 00-4.416 3.072.218.218 0 00.129.354 10.05 10.05 0 005.357-.486 9.963 9.963 0 003.74-2.338l.507-.36-.673 7.95a.574.574 0 00.572.621h1.334c.335 0 .6-.287.572-.622l-.672-7.93.458.341a9.964 9.964 0 003.741 2.338c1.686.643 3.524.812 5.358.486a.218.218 0 00.129-.355 10.05 10.05 0 00-4.417-3.071A9.834 9.834 0 0052 57.38v-.002c1.46.193 2.931.145 4.366-.145z" fill="#6BDDDD"/><path d="M49.084 67.489h-1.333a1.307 1.307 0 01-1.3-1.414l.528-6.228a10.555 10.555 0 01-3.136 1.728c-1.784.68-3.77.861-5.724.515a.952.952 0 01-.725-.609.951.951 0 01.164-.933 10.95 10.95 0 013.057-2.538 14.22 14.22 0 01-.323-.061c-2.49-.425-4.867-1.552-6.852-3.255a1.026 1.026 0 01.326-1.74 14.313 14.313 0 017.003-.668 16.485 16.485 0 01-.41-.406 16.01 16.01 0 01-4.155-6.89 1.017 1.017 0 011.266-1.266 16.025 16.025 0 016.905 4.17c.172.167.34.338.504.514a19.285 19.285 0 01-.15-2.717c-.055-3.513.879-7.045 2.7-10.19a1.146 1.146 0 011.977 0c1.82 3.145 2.753 6.676 2.7 10.213a19.1 19.1 0 01-.146 2.655c.157-.167.318-.33.482-.49a16.007 16.007 0 016.89-4.155 1.016 1.016 0 011.266 1.267 16.03 16.03 0 01-4.17 6.904c-.13.133-.26.263-.394.39 2.308-.366 4.721-.139 7.001.668a1.024 1.024 0 01.326 1.74c-1.982 1.702-4.354 2.828-6.862 3.258-.107.022-.214.042-.322.061a10.97 10.97 0 013.052 2.537.95.95 0 01.165.933.95.95 0 01-.726.608c-1.953.347-3.94.166-5.745-.522a10.484 10.484 0 01-3.065-1.681l.524 6.188a1.307 1.307 0 01-1.298 1.414zm-1.164-1.46h.995l-.498-5.875-.497 5.876zm-8.586-5.254a9.261 9.261 0 004.01-.57 9.217 9.217 0 003.488-2.176.759.759 0 01.09-.076l.507-.36a.729.729 0 01.997.144.73.73 0 01.994-.115l.438.325a.749.749 0 01.098.082 9.19 9.19 0 003.467 2.168 9.314 9.314 0 004.031.578 9.275 9.275 0 00-3.438-2.14 9.18 9.18 0 00-2.108-.53.73.73 0 01-.414-1.248.733.733 0 01.603-.2c1.385.182 2.773.135 4.125-.139l.022-.004c1.996-.34 3.9-1.176 5.55-2.428a12.737 12.737 0 00-6.052-.265 12.571 12.571 0 00-3.288 1.04.73.73 0 01-.655-1.304c1.34-.71 2.55-1.616 3.598-2.694a14.58 14.58 0 003.533-5.47 14.546 14.546 0 00-5.455 3.518 14.464 14.464 0 00-2.268 2.838.73.73 0 01-1.321-.59 17.95 17.95 0 00.762-5.445c.047-3.111-.722-6.202-2.23-8.992-1.508 2.79-2.277 5.88-2.23 8.97-.029 1.892.24 3.76.795 5.572a.73.73 0 01-1.323.589 14.41 14.41 0 00-2.316-2.927 14.572 14.572 0 00-5.47-3.532 14.544 14.544 0 003.518 5.455 14.44 14.44 0 003.613 2.708.73.73 0 01-.655 1.303 12.51 12.51 0 00-3.266-1.035 12.775 12.775 0 00-6.074.261 12.737 12.737 0 005.55 2.429 12.58 12.58 0 004.115.145.73.73 0 01.188 1.447 9.143 9.143 0 00-2.07.52 9.315 9.315 0 00-3.459 2.148z" fill="#42A4FA"/><path d="M43.375 69.982c-.284 0-.499.092-.638.274-.11.145-.204.33-.274.546-.14.38-.345.67-.612.861-.266.191-.6.287-.992.287-.363 0-.681-.086-.947-.255-.264-.168-.472-.43-.62-.777-.153-.362-.23-.828-.23-1.385 0-.828.173-1.47.514-1.907.333-.426.77-.634 1.335-.634.35 0 .644.081.876.241.24.165.454.422.636.764.133.251.254.427.37.537.14.132.339.2.592.2a.803.803 0 00.61-.272.88.88 0 00.243-.613c0-.364-.142-.75-.422-1.146-.275-.387-.672-.715-1.18-.974-.507-.26-1.091-.39-1.736-.39-.528 0-1.034.095-1.502.284-.47.19-.887.47-1.238.833-.35.363-.623.805-.81 1.313a4.959 4.959 0 00-.279 1.713c0 .39.038.762.111 1.11.074.348.186.682.334.991.148.31.33.594.543.846.238.278.503.506.79.678.285.171.606.299.954.38.341.079.725.119 1.139.119.553 0 1.048-.091 1.47-.271a3.09 3.09 0 001.652-1.6c.13-.307.195-.599.195-.868a.85.85 0 00-.262-.632.863.863 0 00-.622-.253zm7.339-.769c.565-.388.85-.934.85-1.627a2.007 2.007 0 00-.475-1.31 2.102 2.102 0 00-.528-.452 2.23 2.23 0 00-.79-.287 5.961 5.961 0 00-.977-.07H46.34c-.385 0-.676.095-.864.284-.188.188-.283.482-.283.874v5.693c0 .384.093.675.275.866.184.194.478.292.873.292h2.314c.407 0 .77-.02 1.077-.06.318-.043.604-.117.855-.221.407-.18.734-.46.974-.834a2.3 2.3 0 00.36-1.262c0-.871-.406-1.503-1.207-1.886zm-1.191-1.044a.631.631 0 01-.358.312c-.185.064-.459.096-.815.096h-1.188v-1.523h1.028c.524 0 .912.057 1.154.169.12.055.282.175.282.564 0 .14-.033.263-.103.382zm-2.36 1.944h1.378c.49 0 .855.075 1.087.224.203.13.302.343.302.648 0 .388-.138.904-1.337.904h-1.43v-1.776zm11.311-3.905a2.688 2.688 0 00-1.101-.59 5.626 5.626 0 00-1.393-.151h-2c-.388 0-.682.096-.871.286-.19.19-.286.483-.286.872v5.554c0 .267.023.482.072.655a.808.808 0 00.375.485c.177.105.42.157.741.157h2c.357 0 .685-.023.972-.07a3.24 3.24 0 00.833-.25c.26-.119.503-.278.723-.477a3.39 3.39 0 00.68-.864c.174-.318.305-.68.388-1.075a6.3 6.3 0 00.124-1.29c0-1.437-.423-2.528-1.257-3.242zm-3.681.908h.795c.444 0 .826.049 1.134.143.28.087.514.288.712.615.204.336.308.863.308 1.567 0 .989-.234 1.687-.697 2.078a1.022 1.022 0 01-.332.191c-.137.049-.271.08-.397.092-.137.013-.332.02-.579.02h-.944v-4.706z" fill="#FFEA92"/><path d="M81.839 39.029c10.576 0 19.15-8.574 19.15-19.15 0-10.576-8.574-19.15-19.15-19.15-10.576 0-19.15 8.574-19.15 19.15 0 10.576 8.574 19.15 19.15 19.15z" fill="#6BDDDD"/><path d="M81.839 34.105c7.856 0 14.225-6.37 14.225-14.226 0-7.856-6.369-14.225-14.225-14.225s-14.225 6.369-14.225 14.225c0 7.857 6.368 14.226 14.225 14.226z" fill="#FFEA92"/><path d="M81.84 39.758c-10.962 0-19.88-8.918-19.88-19.879C61.96 8.918 70.878 0 81.84 0c10.96 0 19.878 8.918 19.878 19.88 0 10.96-8.918 19.878-19.879 19.878zm0-38.299c-10.158 0-18.421 8.263-18.421 18.42 0 10.157 8.263 18.42 18.42 18.42 10.157 0 18.42-8.263 18.42-18.42 0-10.157-8.263-18.42-18.42-18.42z" fill="#42A4FA"/><path d="M88.73 18.708h-2.135c.926-.989 1.488-2.267 1.488-3.667a5.17 5.17 0 00-.35-1.856 2.622 2.622 0 10-3.289-3.288 6.775 6.775 0 00-4.941-.108 2.62 2.62 0 10-3.517 3.294 5.18 5.18 0 00-.39 1.958c0 1.4.561 2.678 1.487 3.667h-2.136a1.85 1.85 0 00-1.85 1.85v1.31a1.85 1.85 0 001.85 1.85h.989c.052.357.127.705.23 1.04l-1.972 1.973a1.85 1.85 0 000 2.616l.926.927a1.85 1.85 0 002.616 0l1.657-1.657a5.58 5.58 0 002.446.57 5.58 5.58 0 002.446-.57l1.657 1.657a1.85 1.85 0 002.616 0l.927-.927a1.85 1.85 0 000-2.616l-1.973-1.973c.103-.335.178-.683.23-1.04h.989a1.85 1.85 0 001.85-1.85v-1.31a1.85 1.85 0 00-1.85-1.85z" fill="#F9A7A7"/><path d="M78.736 18.74a.724.724 0 01-.401-.121c-1.244-.82-1.782-2.397-1.516-4.44a.73.73 0 011.447.189c-.11.845-.144 2.363.872 3.033a.73.73 0 01-.402 1.338zm9.347 9.893a.727.727 0 01-.516-.214l-2.188-2.188a.73.73 0 011.031-1.032l2.189 2.189a.73.73 0 01-.516 1.245z" fill="#F9CFCF"/><path d="M24.737 33.4H7.09l-3.743 3.255A7.613 7.613 0 00.73 42.399v41.116a4.758 4.758 0 004.757 4.757H26.34a4.758 4.758 0 004.758-4.758V42.4a7.611 7.611 0 00-2.618-5.744L24.737 33.4z" fill="#42A4FA"/><path d="M7.296 54.922c-1.083 1.471-1.726 3.237-1.755 5.139-.077 5.014 4.28 9.3 9.744 9.562 5.94.285 10.853-4.045 10.853-9.427 0-1.954-.647-3.768-1.756-5.274l-.002-.004-7.683-10.608c-.407-.563-1.309-.563-1.716 0L7.299 54.917l-.001.002-.002.003z" fill="#FFEA92"/><path d="M6.903 28.8h18.022v4.6H6.903v-4.6z" fill="#4671C6"/><path d="M5.037 28.8h21.754c1.05 0 1.902-.851 1.902-1.902V20.87a1.903 1.903 0 00-1.902-1.903H5.037c-1.05 0-1.903.852-1.903 1.903v6.026c0 1.052.852 1.904 1.903 1.904zm16.071-9.833H10.72V5.923a5.194 5.194 0 0110.388 0v13.044z" fill="#6BDDDD"/><path d="M24.924 34.13H6.904a.73.73 0 01-.73-.73v-4.6a.73.73 0 01.73-.729h18.02a.73.73 0 01.73.73V33.4a.73.73 0 01-.73.73zM7.633 32.67h16.562v-3.14H7.633v3.14z" fill="#3762CC"/><path d="M26.79 29.53H5.037a2.636 2.636 0 01-2.632-2.633v-6.026a2.636 2.636 0 012.632-2.633h21.754a2.636 2.636 0 012.633 2.633v6.026a2.636 2.636 0 01-2.634 2.633zM5.037 19.697c-.647 0-1.173.526-1.173 1.174v6.026c0 .647.526 1.174 1.173 1.174h21.754c.647 0 1.173-.527 1.173-1.174v-6.026c0-.648-.526-1.174-1.173-1.174H5.037zM26.34 89.002H5.487A5.494 5.494 0 010 83.515V42.399a8.337 8.337 0 012.868-6.295l3.744-3.255a.73.73 0 01.479-.179h17.646a.73.73 0 01.48.18l3.743 3.254a8.338 8.338 0 012.868 6.295v41.116a5.494 5.494 0 01-5.488 5.487zM7.363 34.129l-3.537 3.076A6.88 6.88 0 001.459 42.4v41.116a4.033 4.033 0 004.029 4.028H26.34a4.033 4.033 0 004.029-4.028V42.399a6.88 6.88 0 00-2.367-5.194l-3.537-3.076H7.363z" fill="#42A4FA"/><path d="M21.107 19.697H10.72a.73.73 0 01-.73-.73V5.924A5.93 5.93 0 0115.915 0a5.93 5.93 0 015.923 5.923v13.045a.73.73 0 01-.73.73zm-9.658-1.459h8.93V5.923a4.47 4.47 0 00-4.466-4.464 4.47 4.47 0 00-4.464 4.464v12.315z" fill="#42A4FA"/><path d="M23.731 60.905a.28.28 0 00.094-.266.281.281 0 00-.184-.215 7.52 7.52 0 00-2.516-.437c-.483 0-.967.048-1.435.143-.25.043-.498.098-.742.167.366-.27.708-.568 1.024-.893a8.396 8.396 0 002.183-3.614.281.281 0 00-.348-.348 8.39 8.39 0 00-3.612 2.18 8.305 8.305 0 00-.887 1.015c.176-.785.259-1.584.247-2.383a10.432 10.432 0 00-1.423-5.38.344.344 0 00-.3-.172.344.344 0 00-.3.172 10.428 10.428 0 00-1.423 5.376c-.013.812.073 1.624.255 2.42a8.316 8.316 0 00-.91-1.046A8.395 8.395 0 009.84 55.44a.281.281 0 00-.348.348 8.388 8.388 0 002.18 3.613c.317.327.66.626 1.026.895a7.177 7.177 0 00-.738-.166 7.263 7.263 0 00-1.439-.144c-.849 0-1.695.148-2.515.438a.281.281 0 00-.184.215c-.02.1.016.2.093.266a7.436 7.436 0 003.58 1.7c.374.075.756.12 1.139.137l-.022.008a5.575 5.575 0 00-2.441 1.697.241.241 0 00.143.394c.334.06.672.09 1.005.09a5.46 5.46 0 001.953-.357 5.483 5.483 0 002.06-1.286l.048-.033-.34 4.029a.435.435 0 00.432.47h.72a.436.436 0 00.434-.47l-.34-4.01.021.015a5.473 5.473 0 002.057 1.284 5.47 5.47 0 001.956.358c.333 0 .671-.03 1.005-.09a.24.24 0 00.185-.155.24.24 0 00-.042-.239 5.574 5.574 0 00-2.437-1.696l-.024-.009a7.226 7.226 0 001.142-.137 7.433 7.433 0 003.582-1.7z" fill="#6BDDDD"/></svg>