<svg width="73" height="91" fill="none" xmlns="http://www.w3.org/2000/svg"><path d="M41.968 63.553h-3.47l-.022-.001-.001.001H15.652c-6.029 0-10.916 4.888-10.916 10.918V89.31h48.149V74.47c0-6.029-4.888-10.917-10.917-10.917z" fill="#FFEA92"/><path d="M50.352 32.466c-.046 0-.09.006-.136.006v-2.004c0-11.716-9.584-21.213-21.406-21.213S7.404 18.752 7.404 30.468v2.004c-.046 0-.09-.006-.136-.006-3.606 0-6.53 2.897-6.53 6.472 0 3.574 2.924 6.472 6.53 6.472.237 0 .47-.014.701-.038 2.21 9.384 10.698 16.377 20.841 16.377s18.632-6.993 20.841-16.378c.23.024.464.038.701.038 3.607 0 6.53-2.897 6.53-6.471 0-3.575-2.924-6.472-6.53-6.472z" fill="#F9CFCF"/><path d="M18.173 42.923a2.587 2.587 0 01-2.585-2.584v-4.307a2.587 2.587 0 012.585-2.584 2.587 2.587 0 012.584 2.584v4.307a2.587 2.587 0 01-2.584 2.584zm21.174 0a2.587 2.587 0 01-2.585-2.584v-4.307a2.587 2.587 0 012.585-2.584 2.587 2.587 0 012.584 2.584v4.307a2.587 2.587 0 01-2.584 2.584z" fill="#42A4FA"/><path d="M28.81 62.487c-10.134 0-18.848-6.688-21.407-16.34a5.48 5.48 0 01-.134 0C3.26 46.148 0 42.914 0 38.938c0-3.774 2.939-6.88 6.666-7.185v-1.284c0-12.104 9.934-21.95 22.145-21.95 12.21 0 22.144 9.846 22.144 21.95v1.284c3.727.305 6.666 3.411 6.666 7.186 0 3.975-3.26 7.21-7.269 7.21-.044 0-.089 0-.133-.002-2.56 9.653-11.274 16.34-21.409 16.34zM7.97 44.633c.339 0 .639.232.718.569C10.878 54.51 19.153 61.01 28.81 61.01s17.932-6.5 20.122-15.81a.742.742 0 01.797-.564c.218.023.421.034.623.034 3.194 0 5.792-2.572 5.792-5.733 0-3.161-2.596-5.733-5.79-5.734a2.495 2.495 0 01-.12.007.696.696 0 01-.534-.21.74.74 0 01-.222-.528v-2.005c0-11.29-9.272-20.475-20.668-20.475-11.397 0-20.668 9.186-20.668 20.475v2.005c0 .199-.08.39-.223.528a.675.675 0 01-.533.21l-.095-.005h-.004c-3.215 0-5.812 2.571-5.812 5.731 0 3.162 2.6 5.734 5.793 5.734.201 0 .405-.01.623-.034a.822.822 0 01.079-.004z" fill="#42A4FA"/><path d="M29.31 52.647h-1c-.581 0-1.09-.07-1.556-.211-.773-.235-1.45-.631-1.962-1.146-.65-.656-1.009-1.483-1.009-2.328a.738.738 0 011.477 0c0 .46.2.905.58 1.288.34.342.804.61 1.343.774.325.099.694.146 1.127.146h1a3.86 3.86 0 001.127-.146c.54-.164 1.004-.432 1.344-.774.38-.383.58-.829.58-1.288a.738.738 0 011.476 0c0 .845-.358 1.671-1.008 2.328-.512.515-1.19.912-1.962 1.146-.466.142-.975.21-1.557.21z" fill="#42A4FA"/><path d="M28.81 61.749c-3.498 0-6.798-.833-9.713-2.307v3.707c0 5.363 4.348 9.71 9.71 9.71 5.364 0 9.712-4.347 9.712-9.71v-3.705a21.456 21.456 0 01-9.709 2.305z" fill="#F9CFCF"/><path d="M22.83 29.025H1.454v-7.421C1.455 10.08 10.797.738 22.321.738h6.002a5.493 5.493 0 015.493 5.493v11.807c0 6.068-4.919 10.987-10.987 10.987zm32.995-.735H43.386a9.57 9.57 0 01-9.57-9.57V5.76a5.02 5.02 0 015.02-5.02c9.383 0 16.99 7.605 16.99 16.988V28.29h-.001zm-52.12.735v4.493a6.538 6.538 0 013.564-1.052c.046 0 .09.006.135.006v-2.004c0-.485.02-.966.052-1.443h-3.75zm46.396-.735c.074.717.115 1.443.115 2.178v2.004c.046 0 .09-.006.136-.006a6.54 6.54 0 013.558 1.049V28.29H50.1z" fill="#42A4FA"/><path d="M22.83 29.763H1.454a.738.738 0 01-.738-.738v-7.421C.717 9.692 10.408 0 22.321 0h6.002a6.239 6.239 0 016.231 6.232v11.806c0 6.465-5.26 11.725-11.725 11.725zM2.192 28.287H22.83c5.652 0 10.25-4.598 10.25-10.249V6.232a4.76 4.76 0 00-4.756-4.756h-6.002c-11.099 0-20.128 9.03-20.128 20.128v6.683z" fill="#42A4FA"/><path d="M55.825 29.028H43.386c-5.684 0-10.308-4.624-10.308-10.308V5.759A5.765 5.765 0 0138.836 0c9.775 0 17.727 7.952 17.727 17.726V28.29c0 .408-.33.738-.738.738zM38.836 1.476a4.287 4.287 0 00-4.282 4.283V18.72c0 4.87 3.962 8.832 8.832 8.832h11.7v-9.826c0-8.96-7.289-16.25-16.25-16.25zM3.705 34.256a.74.74 0 01-.738-.738v-4.493c0-.407.33-.738.738-.738h3.75a.736.736 0 01.737.788c-.034.497-.05.953-.05 1.393v2.005c0 .199-.08.39-.223.528a.667.667 0 01-.533.21l-.095-.005h-.009a5.81 5.81 0 00-3.176.931.733.733 0 01-.4.12zm.738-4.493v2.533a7.263 7.263 0 012.223-.544v-1.284c0-.23.004-.465.012-.705H4.443z" fill="#42A4FA"/><path d="M53.91 34.253a.74.74 0 01-.4-.118 5.809 5.809 0 00-3.159-.931 2.18 2.18 0 01-.117.007.696.696 0 01-.533-.21.74.74 0 01-.223-.528v-2.005c0-.678-.037-1.385-.111-2.102a.737.737 0 01.734-.814h3.808c.408 0 .739.33.739.738v5.225a.739.739 0 01-.738.738zm-2.956-2.5a7.271 7.271 0 012.218.541v-3.266h-2.267c.033.489.05.97.05 1.44v1.284z" fill="#42A4FA"/><path d="M19.099 81.501a5.252 5.252 0 002.54-1.205.114.114 0 00-.036-.195 5.25 5.25 0 00-2.804-.208c-.466.08-.918.224-1.346.427a5.892 5.892 0 001.472-1.102 5.94 5.94 0 001.55-2.568.112.112 0 00-.139-.14 5.94 5.94 0 00-2.567 1.55 5.895 5.895 0 00-.923 1.156 7.31 7.31 0 00.31-2.207 7.407 7.407 0 00-1.014-3.832.161.161 0 00-.278 0 7.403 7.403 0 00-1.014 3.832 7.276 7.276 0 00.322 2.25 5.895 5.895 0 00-.947-1.198 5.94 5.94 0 00-2.568-1.55.112.112 0 00-.14.139 5.938 5.938 0 001.551 2.567c.43.443.927.814 1.473 1.103a5.145 5.145 0 00-1.347-.427 5.254 5.254 0 00-2.804.208.114.114 0 00-.036.195 5.257 5.257 0 002.54 1.205 5.167 5.167 0 001.688.058c-.298.039-.59.112-.87.219-.665.23-1.255.64-1.721 1.196a.085.085 0 00.05.139c.714.127 1.43.06 2.087-.19a3.888 3.888 0 001.457-.91l.198-.14-.263 3.096a.224.224 0 00.223.243h.52a.224.224 0 00.223-.243l-.262-3.09.179.134a3.88 3.88 0 001.457.91c.657.25 1.373.317 2.087.19a.085.085 0 00.05-.139 3.916 3.916 0 00-1.72-1.196 3.825 3.825 0 00-.878-.22 5.16 5.16 0 001.7-.057zm9.893-.028c-.293 0-.514.096-.658.283-.114.15-.21.341-.283.563-.143.392-.356.691-.631.889-.275.197-.619.296-1.024.296-.374 0-.703-.088-.977-.263-.272-.174-.488-.443-.64-.802-.157-.374-.237-.855-.237-1.43 0-.854.178-1.515.53-1.967.344-.44.795-.654 1.378-.654.36 0 .664.083.904.248.248.17.469.436.657.789.136.258.262.44.382.554.144.136.35.205.61.205a.828.828 0 00.63-.28.908.908 0 00.25-.632c0-.377-.146-.774-.435-1.183-.283-.4-.692-.738-1.217-1.006-.524-.267-1.126-.403-1.792-.403-.545 0-1.067.099-1.55.294a3.67 3.67 0 00-1.277.86 3.84 3.84 0 00-.835 1.355c-.192.52-.289 1.114-.289 1.767 0 .402.038.787.114 1.145.076.36.193.704.346 1.024.153.319.34.612.56.872.245.287.519.523.814.7.294.177.626.308.985.391a5.25 5.25 0 001.175.123c.572 0 1.082-.094 1.517-.279a3.186 3.186 0 001.705-1.651 2.31 2.31 0 00.201-.896.877.877 0 00-.27-.651.895.895 0 00-.643-.26zm8.254-.793c.583-.4.877-.964.877-1.68a2.08 2.08 0 00-.49-1.352 2.16 2.16 0 00-.545-.465 2.302 2.302 0 00-.815-.296 6.173 6.173 0 00-1.008-.073h-2.532c-.398 0-.698.098-.892.293-.194.194-.292.497-.292.902v5.875c0 .396.095.696.283.893.191.2.494.302.901.302h2.388c.42 0 .794-.021 1.112-.063.328-.044.623-.12.881-.228.42-.184.759-.474 1.006-.86.246-.386.371-.824.371-1.302 0-.899-.419-1.551-1.245-1.946zm-1.23-1.078a.65.65 0 01-.368.322c-.19.066-.474.1-.841.1H33.58v-1.572h1.06c.541 0 .942.058 1.191.174.125.057.291.18.291.582a.747.747 0 01-.106.394zm-2.435 2.006h1.423c.504 0 .882.077 1.12.23.211.136.313.354.313.67 0 .4-.143.932-1.38.932h-1.476v-1.832zm12.354-4.029c-.338-.296-.72-.5-1.137-.608a5.814 5.814 0 00-1.437-.157h-2.063c-.4 0-.704.1-.9.295-.195.196-.294.499-.294.9v5.73c0 .276.024.498.075.677.06.214.19.383.386.5.183.11.433.162.766.162h2.063c.37 0 .707-.024 1.003-.072a3.36 3.36 0 00.86-.257 2.92 2.92 0 00.747-.492c.283-.261.519-.561.7-.892a4.05 4.05 0 00.402-1.11c.084-.4.127-.847.127-1.33-.001-1.483-.438-2.61-1.298-3.346zm-3.8.937h.82c.46 0 .853.05 1.171.148.29.089.53.296.735.635.21.346.317.89.317 1.616 0 1.02-.24 1.74-.718 2.145a1.05 1.05 0 01-.343.197c-.142.05-.28.082-.41.095-.14.013-.342.02-.597.02h-.974v-4.856z" fill="#6BDDDD"/><path d="M52.885 90.048H4.735a.738.738 0 01-.737-.738V74.47c0-6.426 5.228-11.655 11.654-11.655h2.707v-3.373a.738.738 0 011.071-.659 20.588 20.588 0 009.38 2.228c3.301 0 6.456-.749 9.375-2.225a.74.74 0 011.071.659v3.37h2.712c6.426 0 11.655 5.229 11.655 11.656V89.31c0 .407-.33.738-.738.738zM5.474 88.57h46.673v-14.1c0-5.613-4.566-10.18-10.179-10.18h-3.46a.739.739 0 01-.737-.768 8.9 8.9 0 00.01-.374V60.61a22.057 22.057 0 01-8.97 1.877 22.05 22.05 0 01-8.976-1.88v2.542c0 .126.005.25.01.374a.739.739 0 01-.737.768h-3.455c-5.613 0-10.179 4.567-10.179 10.18v14.1z" fill="#42A4FA"/><path d="M65.101 74.944v4.84c0 .438.305.803.713.895.12.028.205.133.205.255v1.885c0 .794.62 1.475 1.414 1.49a1.442 1.442 0 001.468-1.442v-1.933c0-.122.085-.227.205-.255a.917.917 0 00.713-.894v-4.841H65.1z" fill="#A4C9FF"/><path d="M59.106 67.84l-1.561-1.45h-7.358l-1.56 1.45a3.495 3.495 0 00-1.092 2.56v18.137c0 .668.541 1.21 1.209 1.21h10.245a1.21 1.21 0 001.208-1.21V70.4c0-.982-.398-1.916-1.091-2.56z" fill="#6BDDDD"/><path d="M47.535 72.933h12.662v9.616H47.535v-9.616z" fill="#FFEA92"/><path d="M50.109 64.34h7.514v2.05h-7.514v-2.05z" fill="#6BDDDD"/><path d="M49.664 64.34h8.404a.735.735 0 00.736-.735v-2.328a.735.735 0 00-.736-.736h-8.404a.735.735 0 00-.736.736v2.328c0 .406.33.736.736.736z" fill="#42A4FA"/><path d="M56.112 60.541H51.62v-4.8a2.246 2.246 0 014.492 0v4.8zm1.511 6.151H50.11a.302.302 0 01-.302-.302v-2.05c0-.166.136-.302.302-.302h7.514c.167 0 .302.136.302.302v2.05a.302.302 0 01-.302.302zm-7.212-.605h6.91v-1.445h-6.91v1.445z" fill="#42A4FA"/><path d="M58.069 64.642h-8.405a1.039 1.039 0 01-1.038-1.037v-2.328a1.04 1.04 0 011.038-1.038h8.404c.573 0 1.038.466 1.038 1.038v2.328c0 .572-.465 1.038-1.038 1.038zm-8.405-3.799a.434.434 0 00-.433.434v2.328c0 .239.194.433.433.433h8.404a.434.434 0 00.434-.433v-2.328a.434.434 0 00-.434-.433h-8.404z" fill="#42A4FA"/><path d="M56.112 60.843H51.62a.302.302 0 01-.303-.302v-4.8a2.551 2.551 0 012.549-2.548 2.551 2.551 0 012.548 2.548v4.8a.302.302 0 01-.302.302zm-4.19-.604h3.888v-4.498a1.946 1.946 0 00-1.944-1.944 1.946 1.946 0 00-1.944 1.944v4.498zm11.336 4.101h8.404a.735.735 0 00.736-.735v-2.328a.735.735 0 00-.736-.736h-8.404a.735.735 0 00-.736.736v2.328c0 .406.33.736.736.736z" fill="#42A4FA"/><path d="M69.706 60.541h-4.492v-4.8a2.246 2.246 0 014.492 0v4.8z" fill="#42A4FA"/><path d="M71.662 64.643h-8.404a1.038 1.038 0 01-1.038-1.038v-2.328a1.04 1.04 0 011.038-1.038h8.404a1.04 1.04 0 011.038 1.038v2.328a1.04 1.04 0 01-1.038 1.038zm-8.404-3.8a.434.434 0 00-.433.434v2.328c0 .239.194.433.433.433h8.404a.434.434 0 00.434-.433v-2.328a.434.434 0 00-.434-.433h-8.404z" fill="#42A4FA"/><path d="M69.707 60.843h-4.493a.302.302 0 01-.302-.302v-4.8a2.551 2.551 0 012.548-2.548 2.551 2.551 0 012.549 2.548v4.8a.302.302 0 01-.302.302zm-4.191-.604h3.888v-4.498a1.946 1.946 0 00-1.944-1.944 1.946 1.946 0 00-1.944 1.944v4.498zm-6.528 29.809H48.743c-.833 0-1.51-.678-1.51-1.51v-18.14c0-1.066.433-2.08 1.188-2.78l1.56-1.45a.302.302 0 01.206-.082h7.358c.076 0 .15.03.205.081l1.561 1.45a3.796 3.796 0 011.188 2.781v18.138c0 .833-.678 1.51-1.51 1.51zm-8.682-23.356l-1.474 1.369a3.19 3.19 0 00-.995 2.338v18.138c0 .5.407.907.906.907h10.245c.5 0 .907-.407.907-.907V70.4a3.19 3.19 0 00-.995-2.338l-1.474-1.37h-7.12z" fill="#42A4FA"/><path d="M65.998 87.091a1.655 1.655 0 00-.3.927c-.013.905.733 1.678 1.667 1.725 1.017.052 1.857-.73 1.857-1.7 0-.353-.11-.68-.3-.952l-1.315-1.914a.18.18 0 00-.293 0l-1.315 1.913v.001z" fill="#A4C9FF"/><path d="M67.486 88.761a.328.328 0 00-.258-.328h-.003a1.531 1.531 0 01-.413-.11.68.68 0 01-.129-.08c-.144-.125-.255-.33-.213-.67.008-.056-.027-.11-.08-.117a.095.095 0 00-.106.078c-.037.188-.099.678.164 1.08.262.401.15.252.424.394 0 0 .226.142.383.081a.268.268 0 00.118-.066l.008-.008.01-.009a.268.268 0 00.015-.017l.006-.008.008-.01a.356.356 0 00.066-.21z" fill="#E0EBFC"/><path d="M55.916 79.278a3.443 3.443 0 001.665-.79.075.075 0 00-.025-.127 3.441 3.441 0 00-1.836-.136 3.38 3.38 0 00-.883.28c.358-.19.683-.433.965-.723a3.891 3.891 0 001.016-1.682.074.074 0 00-.091-.092 3.892 3.892 0 00-1.683 1.016c-.233.226-.435.48-.604.757.142-.47.21-.957.203-1.446a4.852 4.852 0 00-.665-2.51.106.106 0 00-.182 0 4.851 4.851 0 00-.664 2.51c-.008.499.064.995.211 1.474a3.863 3.863 0 00-.621-.785 3.89 3.89 0 00-1.682-1.016.074.074 0 00-.092.092 3.891 3.891 0 001.016 1.682c.282.29.607.533.965.722a3.372 3.372 0 00-.882-.28 3.442 3.442 0 00-1.837.137.075.075 0 00-.024.128 3.442 3.442 0 001.664.79 3.42 3.42 0 001.106.038 2.526 2.526 0 00-.57.143c-.436.15-.823.42-1.128.784a.056.056 0 00.033.09c.468.084.938.04 1.368-.123.356-.124.68-.327.954-.597l.13-.093-.172 2.03a.147.147 0 00.146.159h.34a.147.147 0 00.146-.16l-.171-2.023.117.087c.273.27.598.473.955.596.43.165.9.208 1.367.124a.055.055 0 00.033-.09 2.564 2.564 0 00-1.127-.784 2.508 2.508 0 00-.575-.144c.372.049.748.036 1.114-.038z" fill="#6BDDDD"/><path d="M65.101 64.34v15.445c0 .436.305.801.713.894.12.028.205.133.205.255v1.885c0 .794.62 1.474 1.414 1.489a1.441 1.441 0 001.469-1.441v-1.933c0-.122.085-.228.204-.255a.918.918 0 00.713-.894V64.34H65.1z" fill="#E0EBFC"/><path d="M67.46 84.61h-.032c-.944-.017-1.712-.82-1.712-1.79v-1.854a1.213 1.213 0 01-.917-1.181V64.34c0-.166.136-.302.302-.302h4.718c.167 0 .302.136.302.302v15.445c0 .562-.375 1.044-.917 1.181v1.9c0 .472-.186.914-.522 1.245-.33.323-.762.5-1.222.5zm-2.056-19.968v15.143a.62.62 0 00.477.6c.259.059.44.285.44.549v1.885c0 .643.501 1.176 1.118 1.187.315.01.6-.11.82-.326a1.13 1.13 0 00.34-.813v-1.933c0-.265.181-.49.44-.55a.62.62 0 00.478-.6V64.643h-4.114zm.343 16.332h.002-.002z" fill="#42A4FA"/></svg>