<svg width="101" height="90" fill="none" xmlns="http://www.w3.org/2000/svg"><path d="M92.309 29.725L79.09 9.123a1.656 1.656 0 00-1.394-.762H22.531c-.564 0-1.09.287-1.394.762L7.919 29.725h84.39z" fill="#42A4FA"/><path d="M92.309 30.553H7.919a.828.828 0 01-.698-1.275L20.44 8.676a2.472 2.472 0 012.09-1.143h55.167c.85 0 1.631.427 2.09 1.142l13.219 20.603a.828.828 0 01-.697 1.275zM9.433 28.897h81.361L78.394 9.57a.824.824 0 00-.697-.381H22.53a.824.824 0 00-.697.38l-12.4 19.328zm1.365 14.834h79.404v39.102H10.799V43.731z" fill="#42A4FA"/><path d="M10.798 43.731h79.404v27.405H10.799V43.731z" fill="#E0EBFC"/><path d="M95.193 43.731H6.223a1.656 1.656 0 01-1.656-1.656V31.381c0-.915.742-1.656 1.656-1.656h88.97c.914 0 1.655.741 1.655 1.656v10.694c0 .915-.74 1.656-1.655 1.656z" fill="#F9A7A7"/><path d="M95.193 44.56H6.223a2.486 2.486 0 01-2.483-2.485V31.381a2.486 2.486 0 012.483-2.484h88.97a2.486 2.486 0 012.484 2.484v10.694a2.486 2.486 0 01-2.484 2.484zM6.223 30.552a.829.829 0 00-.828.828v10.694c0 .457.372.828.828.828h88.97a.829.829 0 00.828-.828V31.381a.829.829 0 00-.828-.828H6.223z" fill="#42A4FA"/><path d="M97.284 88.61H3.716a2.888 2.888 0 110-5.778h93.569a2.888 2.888 0 110 5.777z" fill="#6BDDDD"/><path d="M90.203 71.964H10.797a.828.828 0 01-.828-.828V43.73c0-.457.37-.828.828-.828h79.405c.456 0 .827.371.827.828v27.405c0 .457-.37.828-.828.828zm-78.577-1.656h77.749V44.56h-77.75v25.75z" fill="#42A4FA"/><path d="M37.831 43.731h25.753v39.102H37.831V43.731z" fill="#E0EBFC"/><path d="M43.402 72.725a2.07 2.07 0 100-4.14 2.07 2.07 0 000 4.14z" fill="#42A4FA"/><path d="M63.584 83.66H37.832a.828.828 0 01-.828-.828v-39.1c0-.458.37-.829.828-.829h25.753c.457 0 .828.371.828.828v39.101a.828.828 0 01-.829.828zM38.66 82.005h24.097V44.559H38.66v37.446z" fill="#42A4FA"/><path d="M90.203 83.66H10.797a.828.828 0 01-.828-.828v-39.1c0-.458.37-.829.828-.829h79.405c.456 0 .827.371.827.828v39.101c0 .458-.37.828-.828.828zm-78.577-1.655h77.749V44.559h-77.75v37.446z" fill="#42A4FA"/><path d="M97.284 89.437H3.716A3.72 3.72 0 010 85.72a3.72 3.72 0 013.716-3.717h93.569A3.72 3.72 0 01101 85.721a3.72 3.72 0 01-3.717 3.716zM3.716 83.66c-1.136 0-2.06.925-2.06 2.061s.924 2.06 2.06 2.06h93.569c1.136 0 2.06-.924 2.06-2.06 0-1.136-.924-2.06-2.06-2.06H3.716z" fill="#42A4FA"/><path d="M16.72 62.522a1.034 1.034 0 01-.732-1.766l10.438-10.438a1.034 1.034 0 111.463 1.464L17.452 62.219a1.03 1.03 0 01-.732.303zm6.623 0a1.034 1.034 0 01-.732-1.766L33.05 50.317a1.034 1.034 0 111.463 1.463L24.075 62.218a1.03 1.03 0 01-.732.304zm45.533 0a1.034 1.034 0 01-.732-1.766l10.438-10.438a1.034 1.034 0 111.463 1.463L69.608 62.22a1.031 1.031 0 01-.732.303zm6.624 0a1.034 1.034 0 01-.732-1.766l10.437-10.438a1.034 1.034 0 111.463 1.463L76.231 62.22a1.031 1.031 0 01-.732.303z" fill="#A4C9FF"/><path d="M50.5 39.287c-10.603 0-19.23-8.626-19.23-19.23C31.27 9.455 39.898.828 50.5.828c10.604 0 19.23 8.627 19.23 19.23 0 10.604-8.626 19.23-19.23 19.23z" fill="#FFEA92"/><path d="M50.5 35.424c8.487 0 15.367-6.88 15.367-15.367 0-8.486-6.88-15.366-15.367-15.366-8.486 0-15.366 6.88-15.366 15.366 0 8.487 6.88 15.367 15.366 15.367z" fill="#4671C6"/><path d="M55.238 18.489a8.033 8.033 0 003.885-1.843.175.175 0 00-.057-.297 8.032 8.032 0 00-4.287-.319 7.886 7.886 0 00-2.059.653 9.006 9.006 0 002.252-1.686 9.079 9.079 0 002.37-3.925.172.172 0 00-.213-.214 9.08 9.08 0 00-3.925 2.371 8.995 8.995 0 00-1.41 1.767c.33-1.098.49-2.233.472-3.375.031-2.032-.499-4.043-1.55-5.859a.246.246 0 00-.425 0c-1.051 1.816-1.581 3.827-1.55 5.859a11.16 11.16 0 00.492 3.44 9.01 9.01 0 00-1.449-1.832 9.079 9.079 0 00-3.925-2.37.172.172 0 00-.214.213 9.079 9.079 0 002.371 3.925 9.026 9.026 0 002.251 1.686 7.87 7.87 0 00-2.059-.652 8.036 8.036 0 00-4.286.318.175.175 0 00-.057.297c1.13.97 2.464 1.6 3.885 1.843a7.92 7.92 0 002.58.089c-.456.06-.902.17-1.331.335a5.986 5.986 0 00-2.63 1.829.13.13 0 00.076.211 5.987 5.987 0 003.191-.289 5.93 5.93 0 002.228-1.393l.302-.215-.401 4.735c-.017.2.14.371.34.371h.795c.2 0 .358-.171.341-.37l-.4-4.724.273.203a5.941 5.941 0 002.228 1.393 5.983 5.983 0 003.191.29.13.13 0 00.077-.212 5.986 5.986 0 00-2.63-1.83 5.864 5.864 0 00-1.342-.335v-.001c.87.114 1.745.086 2.6-.087z" fill="#6BDDDD"/><path d="M46.433 26.793c-.23 0-.404.075-.517.222-.09.117-.165.268-.222.441-.112.308-.279.542-.495.698-.215.154-.485.232-.803.232a1.41 1.41 0 01-.766-.206c-.214-.136-.382-.348-.501-.63-.124-.292-.187-.67-.187-1.12 0-.67.14-1.189.417-1.543.27-.346.622-.514 1.08-.514.282 0 .52.066.708.195.194.134.368.342.515.62a1.7 1.7 0 00.3.434c.113.106.274.16.479.16a.651.651 0 00.493-.22.711.711 0 00.198-.495c0-.295-.115-.607-.342-.927-.222-.314-.543-.58-.954-.789a3.058 3.058 0 00-1.406-.316 3.23 3.23 0 00-1.215.23c-.381.154-.719.38-1.002.674a3.01 3.01 0 00-.655 1.063 4.01 4.01 0 00-.226 1.386c0 .315.03.617.09.898.059.283.15.553.27.803.12.25.267.48.438.684.193.225.408.41.64.549.23.138.49.241.772.306a4.1 4.1 0 00.922.097 3.03 3.03 0 001.19-.22 2.494 2.494 0 001.336-1.294c.104-.248.158-.484.158-.702a.686.686 0 00-.213-.511.698.698 0 00-.502-.205zm5.939-.513c.457-.315.688-.757.688-1.318a1.637 1.637 0 00-.384-1.06 1.7 1.7 0 00-.429-.366 1.8 1.8 0 00-.639-.232 4.833 4.833 0 00-.79-.057h-1.986c-.312 0-.547.077-.7.23-.151.152-.228.39-.228.707v4.607c0 .31.074.546.222.701.15.157.387.237.706.237h1.873c.33 0 .623-.017.872-.05.257-.034.489-.094.692-.178.329-.145.594-.372.788-.675.194-.302.291-.646.291-1.021 0-.704-.328-1.216-.976-1.526zm-.965-.846a.51.51 0 01-.29.252c-.149.052-.37.078-.659.078h-.961v-1.232h.831c.424 0 .738.046.934.136.098.045.228.142.228.457a.581.581 0 01-.083.31zm-1.91 1.573h1.116c.395 0 .691.06.879.181.164.106.245.278.245.525 0 .314-.113.731-1.082.731h-1.158v-1.437zm9.154-3.16a2.175 2.175 0 00-.89-.477 4.548 4.548 0 00-1.127-.122h-1.618c-.315 0-.553.077-.706.23-.154.154-.232.392-.232.707v4.494c0 .216.02.39.06.53.046.169.149.3.302.393.144.085.34.127.6.127h1.619c.29 0 .554-.02.787-.057.239-.038.465-.106.674-.202a2.32 2.32 0 00.585-.386 2.74 2.74 0 00.55-.699c.14-.257.247-.55.314-.87.066-.314.1-.665.1-1.043 0-1.164-.343-2.047-1.017-2.625zm-2.979.735h.644c.36 0 .668.039.918.116.227.07.415.232.576.497.165.272.248.698.248 1.268 0 .8-.188 1.365-.563 1.681a.817.817 0 01-.269.155c-.111.04-.219.064-.32.074-.112.01-.27.016-.469.016h-.765v-3.807z" fill="#FFEA92"/><path d="M50.5 40.115c-11.06 0-20.057-8.998-20.057-20.057C30.443 8.998 39.44 0 50.5 0c11.06 0 20.058 8.998 20.058 20.058 0 11.059-8.998 20.057-20.058 20.057zm0-38.46c-10.147 0-18.402 8.256-18.402 18.403 0 10.146 8.255 18.401 18.402 18.401s18.402-8.255 18.402-18.401c0-10.147-8.255-18.402-18.402-18.402z" fill="#42A4FA"/></svg>